<svg width="105" height="81" viewBox="0 0 105 81" fill="none" xmlns="http://www.w3.org/2000/svg">
<path fill-rule="evenodd" clip-rule="evenodd" d="M52.5 0C81.4901 0 105 17.9793 105 40.1486C105 62.3179 81.4901 80.2971 52.5 80.2971C23.5099 80.2971 0 62.3179 0 40.1486C0 17.9793 23.5099 0 52.5 0Z" fill="#F7E123"/>
<path fill-rule="evenodd" clip-rule="evenodd" d="M52.5015 1.69409V1.70044H52.4994H52.4952V1.69409C38.3776 1.69447 25.6141 6.05767 16.3929 13.1094C7.30349 20.0605 1.68006 29.6233 1.67969 40.1474H1.68635V40.1489V40.1512H1.67969C1.68043 50.6749 7.30348 60.2369 16.3923 67.1879C25.6139 74.2405 38.3784 78.6036 52.4973 78.6038V78.5972H52.4994H52.5036V78.6038C66.6213 78.6031 79.3848 74.2401 88.6059 67.1884C97.6955 60.2373 103.319 50.6745 103.319 40.1504H103.313V40.1489V40.1466H103.319C103.318 29.6231 97.6955 20.0609 88.6066 13.1099C79.385 6.05767 66.6203 1.69409 52.5015 1.69409Z" fill="#353980"/>
<path fill-rule="evenodd" clip-rule="evenodd" d="M52.5016 12.1401V12.1449H52.5001H52.4972V12.1401C42.6565 12.1406 33.7597 15.3185 27.332 20.4547C20.9963 25.5177 17.0763 32.4828 17.0762 40.148H17.0807V40.149V40.1508H17.0762C17.0766 47.8156 20.9963 54.7803 27.3316 59.8431C33.7595 64.9796 42.6571 68.1578 52.4986 68.1579V68.1532H52.5001H52.5031V68.1579C62.3438 68.1575 71.2406 64.9796 77.6682 59.8434C84.0038 54.7804 87.9239 47.8153 87.9239 40.1501H87.9195V40.149V40.1474H87.9239C87.9236 32.4825 84.0038 25.5178 77.6686 20.4551C71.2406 15.3185 62.343 12.1403 52.5016 12.1401Z" fill="#F7E123"/>
<path fill-rule="evenodd" clip-rule="evenodd" d="M53.1575 14.27H52.5012H52.4993H51.4028C47.1177 14.3784 43.0359 15.1204 39.301 16.3804C38.4436 16.6697 37.579 16.9985 36.7104 17.364C35.8597 17.7219 35.0398 18.1036 34.254 18.5058C32.2227 19.5453 30.3406 20.7571 28.6408 22.1156L28.6386 22.1128V22.1173C27.7985 22.7884 27.0136 23.4847 26.2888 24.2024C25.5532 24.9303 24.8686 25.6865 24.2395 26.4669C21.1865 30.2544 19.3546 34.6982 19.1885 39.4396V40.1473V40.1483V40.1505V40.8506C19.2602 42.9121 19.6466 44.9197 20.312 46.8409C20.5572 47.5491 20.8357 48.2368 21.145 48.9012C22.7709 52.3943 25.3508 55.5536 28.6401 58.1816L28.6688 58.2105C29.5024 58.8746 30.382 59.5054 31.3026 60.0979C32.1974 60.6739 33.1767 61.2352 34.2359 61.7782C39.3219 64.3859 45.3627 65.9327 51.8674 66.0271H52.498H52.4993H52.5027H53.5513C57.853 65.923 61.9498 65.1812 65.6977 63.9167C66.5552 63.6274 67.4198 63.2987 68.2886 62.9331C69.1391 62.5752 69.9588 62.1937 70.745 61.7914C72.7763 60.7519 74.6581 59.5398 76.358 58.1816L76.3601 58.1843V58.1798C77.2003 57.5087 77.9852 56.8124 78.71 56.0947C79.4456 55.3668 80.1301 54.6106 80.7595 53.8302C83.8091 50.047 85.6408 45.6078 85.8105 40.8722V40.1498V40.1483V40.1469V39.4143C85.736 37.3636 85.3489 35.3677 84.687 33.4562C84.4418 32.748 84.1632 32.0603 83.8539 31.3959C82.2282 27.9028 79.6482 24.7435 76.3589 22.1156L76.326 22.0822L76.3235 22.0801C75.4917 21.4183 74.6138 20.7898 73.6961 20.1992C72.8014 19.6233 71.8221 19.062 70.7629 18.5189C65.6834 15.9146 59.6525 14.3678 53.1575 14.27Z" fill="#BBBDBF"/>
<path fill-rule="evenodd" clip-rule="evenodd" d="M53.0363 15.6398L53.0367 20.0579C54.0071 20.0441 54.9755 19.9969 55.9339 19.9161C55.0583 18.2633 54.0858 16.8181 53.0363 15.6398ZM53.0367 21.1152L53.0373 29.7458C55.1783 29.7427 57.3036 29.6745 59.3877 29.5427C58.662 26.3792 57.661 23.4477 56.4464 20.9294C55.3206 21.0363 54.1794 21.0986 53.0367 21.1152ZM53.0373 30.8055L53.038 39.6921H60.6815C60.6695 39.2959 60.6535 38.9004 60.6326 38.5055C60.4899 35.7938 60.1409 33.1242 59.6158 30.5875C57.4573 30.7279 55.2552 30.8015 53.0373 30.8055ZM53.038 40.7547L53.0386 49.9968C55.3412 50.0011 57.627 50.0799 59.8644 50.2314C60.4705 47.1468 60.734 43.9401 60.7032 40.7547H53.038ZM53.0386 51.056L53.0392 59.6905C54.1984 59.7079 55.356 59.7717 56.4978 59.882C57.9273 57.2475 58.9597 54.3311 59.6443 51.2769C57.4784 51.1341 55.267 51.0594 53.0386 51.056ZM53.0392 60.7487L53.0396 64.7953C54.1262 63.5987 55.0855 62.2896 55.9235 60.8905C54.9696 60.8099 54.0052 60.763 53.0392 60.7487ZM51.9897 64.7946L51.9893 60.7464C51.0207 60.7561 50.0537 60.7988 49.0965 60.8747C49.9367 62.2796 50.8989 63.5938 51.9897 64.7946ZM51.9893 59.6875L51.9887 51.0594C49.7929 51.0782 47.5857 51.1661 45.3942 51.3251C46.0775 54.3532 47.1034 57.2449 48.5197 59.8599C49.6643 59.7558 50.8253 59.6981 51.9893 59.6875ZM51.9887 49.9996L51.988 40.7547H44.3225C44.2919 43.9558 44.5585 47.1784 45.1719 50.2769C47.436 50.1096 49.718 50.0178 51.9887 49.9996ZM51.988 39.6921L51.9874 30.8028C49.7996 30.7851 47.6011 30.6995 45.4184 30.5441C44.8882 33.0936 44.5355 35.7775 44.3921 38.5042C44.3713 38.8995 44.3558 39.2953 44.3438 39.6921H51.988ZM51.9874 29.7427L51.9868 21.1177C50.8411 21.1069 49.6982 21.0504 48.5714 20.949C47.3665 23.4505 46.372 26.359 45.6486 29.4963C47.7559 29.6434 49.877 29.725 51.9874 29.7427ZM51.9868 20.06L51.9863 15.6479C50.9356 16.8276 49.962 18.2747 49.0862 19.9293C50.0457 20.006 51.0157 20.05 51.9868 20.06ZM42.5821 60.8781C43.8336 60.5502 45.1426 60.2899 46.484 60.0977C46.7842 60.0548 47.0863 60.0152 47.3901 59.9789C46.0098 57.3346 45.0069 54.434 44.336 51.4073C43.012 51.5177 41.6956 51.6547 40.3931 51.8182C38.4755 52.0592 36.59 52.3576 34.7568 52.7157C34.9759 53.0757 35.2051 53.4322 35.445 53.7843C37.2446 56.425 39.6251 58.837 42.5821 60.8781ZM46.6324 61.1481C45.6607 61.2873 44.7109 61.4618 43.7919 61.6719C45.855 62.9588 48.1722 64.0733 50.7414 64.9747C49.6866 63.7418 48.7552 62.4041 47.9405 60.9833C47.5012 61.031 47.0648 61.086 46.6324 61.1481ZM57.6243 60.0061C59.2715 60.2116 60.8753 60.5162 62.3924 60.9196C65.3807 58.8683 67.783 56.4392 69.5964 53.7783C69.8553 53.3985 70.1021 53.0134 70.3372 52.6245C67.3266 52.0392 64.0777 51.6116 60.7035 51.3521C60.0309 54.4089 59.0195 57.3384 57.6243 60.0061ZM61.1867 61.7066C59.8667 61.3986 58.4872 61.1646 57.0768 61.0046C56.2649 62.4179 55.3379 63.7486 54.288 64.9755C56.836 64.082 59.1362 62.979 61.1867 61.7066ZM34.1954 51.7457C36.1709 51.3495 38.202 51.0231 40.2654 50.764C41.5384 50.6042 42.825 50.4699 44.1189 50.3604C43.5081 47.2282 43.2418 43.9796 43.2716 40.7547H31.2693C31.321 44.5309 32.299 48.29 34.1954 51.7457ZM60.9189 50.3084C64.417 50.5825 67.7828 51.0352 70.893 51.6558C72.7584 48.2249 73.72 44.4982 73.7716 40.7547H61.7544C61.7844 43.9616 61.5219 47.1923 60.9189 50.3084ZM31.2797 39.6921H43.2922C43.3042 39.2774 43.3205 38.8634 43.3422 38.4502C43.4858 35.7199 43.8372 33.0286 44.3651 30.464C42.9882 30.3518 41.6191 30.2111 40.2654 30.0417C38.2064 29.7841 36.1797 29.4587 34.2079 29.0647C32.3711 32.432 31.3971 36.0595 31.2797 39.6921ZM61.7335 39.6921H73.7619C73.646 36.0914 72.6884 32.4947 70.8818 29.1525C67.701 29.7845 64.2532 30.2419 60.6701 30.5133C61.1923 33.0635 61.5396 35.7379 61.6825 38.4515C61.7043 38.8643 61.7213 39.2779 61.7335 39.6921ZM34.7659 28.0936C36.5961 28.45 38.4784 28.7478 40.3931 28.9875C41.7793 29.161 43.1816 29.3034 44.5918 29.4167C45.3041 26.2884 46.2818 23.3727 47.4679 20.8344C46.8053 20.7567 46.1494 20.6634 45.5042 20.5535C44.4581 20.3754 43.4387 20.155 42.4576 19.8936C39.4233 22.072 37.0093 24.6192 35.2118 27.3823C35.0585 27.618 34.9103 27.855 34.7659 28.0936ZM60.4454 29.4696C63.9091 29.2133 67.2444 28.7812 70.3294 28.184C70.1686 27.9156 70.002 27.6492 69.8298 27.3846C68.02 24.6032 65.586 22.0404 62.5221 19.8522C60.9436 20.2793 59.2688 20.5988 57.5478 20.81C58.7446 23.3682 59.7296 26.3114 60.4454 29.4696ZM43.6262 19.0932C44.2954 19.2503 44.9801 19.3886 45.6771 19.5074C46.4262 19.6351 47.1894 19.7404 47.9614 19.8237C48.7887 18.2016 49.7058 16.7579 50.6948 15.5405C48.0717 16.5299 45.7157 17.7281 43.6262 19.0932ZM57.0572 19.8056C58.5361 19.6388 59.9816 19.3899 61.3599 19.0601C59.2808 17.7079 56.9387 16.5201 54.3331 15.5386C55.3183 16.7519 56.2322 18.1899 57.0572 19.8056ZM53.1575 14.27H51.4028C48.7128 14.3368 44.4486 17.1345 42.2482 18.663C41.9796 18.5867 41.7137 18.5077 41.4519 18.4248C40.1323 18.007 38.9038 17.5058 37.8035 16.9226L37.8031 16.9224C37.4398 17.0627 37.0753 17.2104 36.7104 17.364L36.5666 17.4248C36.8691 17.6029 37.2362 17.8197 37.3136 17.8607C38.4733 18.4756 39.7611 19.0014 41.139 19.4377L41.1679 19.4466C38.334 21.5923 36.0513 24.0611 34.3185 26.7247C34.0885 27.0784 33.8688 27.435 33.6582 27.7952C33.2079 27.7005 32.7603 27.6033 32.3174 27.5013C29.7887 26.919 27.3827 26.2168 25.156 25.3913C24.9043 25.6719 24.659 25.956 24.4219 26.2435L24.6072 26.3158L24.6405 26.3284C26.9621 27.1978 29.4634 27.9319 32.0825 28.5351C32.4255 28.6141 32.7711 28.6904 33.1181 28.765C31.2959 32.2084 30.331 35.9084 30.2169 39.6155L19.1885 39.6262V40.1483V40.6888L30.2072 40.6782C30.2576 44.5294 31.2261 48.3607 33.1061 51.8936C32.763 51.9676 32.4215 52.0439 32.0825 52.1223C29.4687 52.7261 26.9727 53.4604 24.655 54.3301C24.8986 54.6172 25.1492 54.9003 25.4068 55.1794C27.5636 54.3911 29.8838 53.7182 32.3174 53.1561C32.7574 53.0545 33.2018 52.9563 33.649 52.8619C33.9361 53.3497 34.2407 53.8312 34.564 54.3054C36.2898 56.8377 38.5267 59.166 41.2699 61.1736C40.1663 61.5174 39.1189 61.9189 38.1478 62.3765C37.7181 62.5788 37.3056 62.7913 36.9128 63.0128L36.9139 63.0149C37.3393 63.1911 37.7698 63.3607 38.2058 63.5227C38.3338 63.4589 38.4624 63.3968 38.5927 63.3354C39.7408 62.7943 41.0068 62.3344 42.3543 61.9571C42.3804 61.9499 46.3789 64.6669 50.6568 65.9925C51.0585 66.0095 51.462 66.0212 51.8677 66.0271H53.5513C56.3661 65.9602 60.2531 63.5284 62.5697 61.9897C64.059 62.4117 65.4519 62.935 66.7038 63.5599C67.1307 63.4013 67.5596 63.2336 67.9894 63.0568L67.9947 63.0474C66.7065 62.3238 65.2497 61.7142 63.6784 61.2193C66.4536 59.1998 68.713 56.8532 70.4534 54.2995C70.7953 53.7975 71.1175 53.2874 71.4196 52.7701C74.4517 53.4113 77.2169 54.2174 79.5934 55.1791C79.863 54.8865 80.1249 54.59 80.3787 54.2897C77.9921 53.3628 74.7804 52.4141 71.9564 51.8033C73.8062 48.2955 74.7593 44.4967 74.8097 40.6782H85.8105V40.1483V39.6155H74.8006C74.6881 35.9398 73.7385 32.2713 71.9458 28.8532C75.0844 28.1772 77.9378 27.3258 80.3709 26.3097L80.5709 26.2363C80.3335 25.9488 80.0886 25.6651 79.8371 25.3854C77.4048 26.3885 74.551 27.2257 71.4122 27.8864C71.186 27.496 70.948 27.1096 70.699 26.7271C68.9529 24.0432 66.6492 21.5575 63.7849 19.4003C65.3159 18.9111 66.7359 18.3123 67.9947 17.6029L68.3744 17.4025C67.9536 17.224 67.5279 17.0527 67.0968 16.8882C65.7842 17.5849 64.3031 18.1638 62.7095 18.6246C60.2561 16.9288 57.4276 15.4632 54.2234 14.2989C53.8695 14.2849 53.5144 14.2754 53.1575 14.27Z" fill="#4782A5"/>
<path fill-rule="evenodd" clip-rule="evenodd" d="M70.0225 44.5102C70.0082 44.5978 69.9923 44.6847 69.9766 44.7721L69.9759 44.7718C69.8897 45.2462 69.7925 45.6836 69.6848 46.0825H69.6808C69.0837 48.2905 68.0211 50.3078 66.4947 52.1311L66.4958 52.132L66.4939 52.1343L66.4817 52.1468C66.0752 52.631 65.6472 53.0862 65.1983 53.5106C64.7569 53.9281 64.2844 54.3227 63.782 54.6926C61.2502 56.5556 58.1959 57.55 54.5924 57.55H54.588V57.5458C52.9532 57.5453 51.4161 57.3058 49.9892 56.8697C49.7259 56.7892 49.4963 56.7135 49.3017 56.6438C48.1314 56.2236 47.0431 55.6708 46.0444 55.0113L46.0362 55.0071L46.0343 55.0058L46.0347 55.0052C45.8853 54.9064 45.7033 54.7784 45.4923 54.6256C45.28 54.4717 45.1027 54.3383 44.9604 54.2252C44.7738 54.0771 44.5914 53.9251 44.412 53.7683V56.4491V57.5117H43.3579H41.2533L40.1992 57.512V56.4491V47.2104V46.1478H41.2533H43.3576H43.3579H44.412V46.9618C45.6609 49.3842 47.5383 51.119 49.6778 52.1439C51.6594 53.0933 53.8649 53.4388 56.0041 53.1627C58.1388 52.8873 60.211 51.9921 61.9309 50.4602C63.6064 48.9679 64.9548 46.8623 65.713 44.1239C63.8963 44.2186 62.0258 44.5306 60.1201 44.8488C55.7956 45.5712 51.2934 46.3233 46.3594 44.805L45.6078 44.5738L45.6141 43.7838L45.627 42.1862L45.6285 41.9947L45.6354 41.1259L45.6512 39.1679L45.663 37.7105L47.0307 38.1675C51.2542 39.5785 55.4893 38.8793 59.724 38.1802C61.4456 37.8961 63.1679 37.6124 64.9169 37.4595C63.6001 34.6136 61.7026 32.7148 59.5709 31.6333C58.182 30.9289 56.6898 30.5657 55.1923 30.5094C53.6857 30.4528 52.1681 30.7062 50.74 31.2335C48.1044 32.2064 45.7878 34.1116 44.412 36.7195V37.5288H43.3579H43.3576H41.2533H40.1992V36.4662V27.2275V26.165L41.2533 26.1648H43.3579L44.412 26.165V27.2275V29.7313C44.8878 29.3186 45.4077 28.9294 45.9806 28.5615L45.9848 28.5573L45.9888 28.5547L45.9896 28.556C46.3402 28.3314 46.6991 28.1216 47.065 27.9286C47.4602 27.7204 47.8358 27.5408 48.1913 27.3905H48.1955C50.161 26.5597 52.3319 26.1438 54.7069 26.1438H54.7099V26.1481C57.1624 26.1485 59.361 26.6966 61.3118 27.6717C61.6193 27.8253 61.9312 27.9964 62.2451 28.1828C63.8052 29.109 65.188 30.3134 66.3992 31.7257C67.2963 32.7715 68.0397 33.8231 68.626 34.9234C69.1042 35.8209 69.4792 36.7501 69.7476 37.7324C69.8437 37.7473 69.9302 37.7611 70.0059 37.7747C70.8506 37.9246 71.7699 38.1613 72.6433 38.4336L73.3888 38.6661L73.3886 39.4465V41.0734V41.3875V42.1586V42.5945V44.0843V45.5731L71.9927 45.0847L71.9568 45.0722C71.7743 45.0084 71.5963 44.9487 71.4241 44.8934C71.2419 44.835 71.0771 44.7842 70.9308 44.7417C70.601 44.6458 70.2985 44.5695 70.0225 44.5102Z" fill="#1A2128"/>
<path fill-rule="evenodd" clip-rule="evenodd" d="M26.3504 41.379C27.375 41.6391 27.967 41.0519 28.0448 40.2768C28.0684 40.1827 28.0811 40.0881 28.0815 39.9963C28.0819 39.9002 28.0704 39.7892 28.0484 39.6671C27.9272 38.873 27.3158 38.3912 26.3504 38.5653V41.379ZM26.8366 44.2919L26.8363 45.0853H27.5249L27.5254 46.148L27.526 47.359L27.5266 48.4216H26.476H25.5623H24.6711H24.5082H23.617H21.5127H20.4634L20.4628 47.359L20.4622 46.148L20.4618 45.0853H21.1895L21.1746 38.5576H20.4268L20.4426 37.4824L20.4628 36.1116L20.4784 35.0615H21.5127H23.617H24.5082H24.6711H25.0749H25.5623V35.0668C26.7502 35.0921 27.9384 35.2262 28.9246 35.7119C30.2077 36.3435 31.0778 37.4691 31.0951 39.4713C31.1103 41.2444 30.6165 42.4778 29.6463 43.2862C28.9284 43.8843 27.9896 44.201 26.8366 44.2919Z" fill="#F7E123"/>
<path fill-rule="evenodd" clip-rule="evenodd" d="M38.7019 39.9474H37.2611H36.2204L36.2112 38.893L36.209 38.6473L36.033 38.6497V45.0237H36.7964V46.0863V47.359V48.4216H35.7423H34.7592H33.868H33.705H32.8139H32.6469H31.5928V48.4173H30.7866H29.7324V47.359V46.0863V45.0237H30.4903V38.6193H29.7324V37.5566V36.1242V35.0657H30.7866H31.5928V35.0615H32.6469H33.705H34.7592V35.0657H38.7019H39.756V36.1242V38.8847V39.9474H38.7019Z" fill="#F7E123"/>
<path fill-rule="evenodd" clip-rule="evenodd" d="M68.0812 42.4683C68.0669 42.5558 68.0511 42.6428 68.0352 42.7301L68.0346 42.7299C67.9484 43.2043 67.8512 43.6417 67.7435 44.0406H67.7395C67.1424 46.2485 66.0798 48.2659 64.5534 50.0892L64.5545 50.09L64.5526 50.0924L64.5403 50.1049C64.1339 50.5891 63.7059 51.0443 63.257 51.4687C62.8155 51.8861 62.3431 52.2808 61.8407 52.6506C59.3088 54.5137 56.2546 55.5081 52.6511 55.5081H52.6466V55.5038C51.0119 55.5034 49.4747 55.2639 48.0478 54.8278C47.7845 54.7472 47.5549 54.6716 47.3603 54.6019C46.19 54.1817 45.1017 53.6289 44.103 52.9694L44.0948 52.9651L44.0929 52.9639L44.0933 52.9632C43.9439 52.8644 43.7619 52.7365 43.5509 52.5837C43.3386 52.4298 43.1613 52.2963 43.0189 52.1833C42.8324 52.0351 42.65 51.8832 42.4706 51.7263V54.4072V55.4698H41.4164H39.3119L38.2578 55.47V54.4072V45.1685V44.1058H39.3119H41.4162H41.4164H42.4706V44.9198C43.7195 47.3422 45.597 49.0771 47.7365 50.1019C49.718 51.0513 51.9235 51.3969 54.0628 51.1208C56.1974 50.8454 58.2697 49.9502 59.9896 48.4183C61.6651 46.9259 63.0135 44.8204 63.7717 42.0819C61.9549 42.1767 60.0845 42.4887 58.1788 42.8068C53.8543 43.5292 49.352 44.2814 44.418 42.763L43.6664 42.5318L43.6727 41.7418L43.6856 40.1443L43.6871 39.9528L43.694 39.0839L43.7098 37.1259L43.7217 35.6686L45.0893 36.1255C49.3128 37.5365 53.5479 36.8373 57.7826 36.1383C59.5043 35.8541 61.2265 35.5704 62.9756 35.4176C61.6587 32.5716 59.7613 30.6728 57.6296 29.5913C56.2407 28.8869 54.7484 28.5237 53.2509 28.4674C51.7443 28.4109 50.2267 28.6642 48.7986 29.1915C46.163 30.1645 43.8465 32.0696 42.4706 34.6775V35.4869H41.4164H41.4162H39.3119H38.2578V34.4242V25.1855V24.1231L39.3119 24.1228H41.4164L42.4706 24.1231V25.1855V27.6893C42.9464 27.2766 43.4663 26.8874 44.0391 26.5195L44.0434 26.5153L44.0474 26.5128L44.0482 26.514C44.3988 26.2894 44.7576 26.0796 45.1237 25.8866C45.5187 25.6784 45.8945 25.4988 46.2499 25.3485H46.2541C48.2197 24.5177 50.3906 24.1018 52.7656 24.1018H52.7685V24.1061C55.2211 24.1065 57.4196 24.6546 59.3704 25.6297C59.678 25.7833 59.9898 25.9544 60.3037 26.1408C61.8639 27.067 63.2467 28.2714 64.4579 29.6837C65.355 30.7296 66.0984 31.7812 66.6847 32.8814C67.1628 33.779 67.5379 34.7082 67.8063 35.6904C67.9024 35.7053 67.9889 35.7192 68.0645 35.7327C68.9093 35.8826 69.8285 36.1193 70.702 36.3916L71.4475 36.6241L71.4473 37.4045V39.0314V39.3455V40.1166V40.5525V42.0424V43.5311L70.0514 43.0428L70.0156 43.0302C69.833 42.9664 69.655 42.9067 69.4828 42.8515C69.3007 42.793 69.1358 42.7422 68.9895 42.6997C68.6597 42.6039 68.3572 42.5276 68.0812 42.4683Z" fill="#F6E125"/>
<path fill-rule="evenodd" clip-rule="evenodd" d="M83.5236 35.0091L84.5734 35.0151V36.0675V37.5463V38.609H83.8226L83.8974 43.6087V43.613L83.8977 43.6595V43.6761C83.8963 43.8308 83.8829 43.9817 83.8589 44.1241C83.8377 44.2491 83.8029 44.3938 83.757 44.5547C83.1632 46.6241 81.7138 48.1133 79.5477 48.5303L75.2744 48.5422L74.2264 48.5452L74.2245 47.4838L74.2209 45.2865L74.2192 44.1962L75.2997 44.2281L76.6041 44.2668L77.579 44.2958L77.6138 45.034L78.3211 45.0399L78.316 44.3683L78.0371 44.3458L77.9549 44.3335C76.6176 44.1194 75.723 43.5864 75.1129 42.8498C74.5165 42.1295 74.2346 41.2588 74.0904 40.323L74.0782 40.2427V40.1611L74.0818 38.609H73.4033V37.5463V36.0675V34.9983L74.4657 35.0091L77.1151 35.0365C77.3504 35.0391 77.5859 35.0397 77.8216 35.0404L77.7732 38.5142L77.2895 38.505L77.2815 40.3056C77.2783 41.0832 78.1899 41.72 78.7379 41.7259L78.7196 38.5323L77.9032 38.5167L77.9517 35.041C79.8072 35.0438 81.6678 34.9989 83.5236 35.0091Z" fill="#F7E123"/>
<path fill-rule="evenodd" clip-rule="evenodd" d="M32.4835 47.3588H30.7861V46.0862H31.544V37.5565H30.7861V36.124H32.4835V47.3588ZM32.6465 47.3588H33.7046V36.124H32.6465V47.3588ZM38.7015 38.8846H37.2607L37.2493 37.5756L34.9785 37.6041V46.0862H35.7419V47.3588H33.8676V36.124H38.7015V38.8846Z" fill="#1A2128"/>
<path fill-rule="evenodd" clip-rule="evenodd" d="M67.1791 41.2635C66.8822 44.3193 65.7354 47.0386 63.7397 49.4174C61.0134 52.6657 57.3412 54.4453 52.6516 54.4453C49.5933 54.4453 46.9095 53.5533 44.68 52.0809C43.4359 51.259 42.3482 50.2652 41.417 49.1016V54.407H39.3125V45.1684H41.4168H41.417V45.1688C46.57 55.6516 62.4167 54.7522 65.1085 40.9957C58.724 40.9075 52.1157 44.0249 44.7232 41.75L44.7361 40.1524C53.9241 42.0154 59.312 39.5422 64.8739 39.365V38.1835C59.5378 38.3384 53.8925 40.6499 44.7445 39.0921L44.7603 37.134C51.4556 39.3709 57.9271 36.6312 64.5102 36.3798C59.9705 23.8845 45.8307 25.5828 41.417 34.4236V34.4241H41.4168H39.3125V25.1854H41.417V30.3866C42.2689 29.2247 43.2913 28.2549 44.6039 27.4118C46.9356 25.9137 49.6566 25.1643 52.766 25.1643C57.3288 25.1643 60.9398 27.201 63.6635 30.3769C65.3552 32.3491 66.461 34.3318 66.9565 36.6486C67.9948 36.7496 69.2406 37.0452 70.3936 37.4044V39.0313C69.3146 38.632 68.2663 38.3956 67.224 38.2755V39.4436C68.2493 39.5505 69.2979 39.7616 70.3936 40.1165V42.0422C69.0169 41.5589 67.9341 41.3124 67.1791 41.2635Z" fill="#1A2128"/>
<path fill-rule="evenodd" clip-rule="evenodd" d="M81.8298 36.0584L83.5178 36.0677V37.5465H82.7554L82.8458 43.6215C82.8625 44.2161 82.4406 45.2199 81.8298 46.0537V36.0584ZM80.6004 36.0516L81.6668 36.0575V46.266C81.3438 46.6691 80.9771 47.016 80.6004 47.2328V36.0516ZM79.4387 41.8717L79.4096 37.5276L78.5691 37.5191V36.0403L80.4374 36.0507V47.3182C80.2166 47.4222 79.9944 47.4782 79.7751 47.4714L75.273 47.484L75.2694 45.2866L76.5738 45.3253L76.6097 46.0843L79.3778 46.1074L79.3569 43.3877L78.1181 43.2876C76.0065 42.9497 75.3615 41.6853 75.1267 40.1612L75.1326 37.5465H74.4561V36.0677L77.1055 36.0951V37.5739H76.6271L76.6158 40.3113C76.7275 41.0441 77.2141 41.5635 78.0755 41.8698L79.4387 41.8717Z" fill="#1A2128"/>
<path fill-rule="evenodd" clip-rule="evenodd" d="M24.5079 47.3588H21.5124L21.5118 46.1478H22.2415L22.2219 37.4948H21.4922L21.5124 36.124H24.5079V47.3588ZM25.8078 41.9027C27.5647 42.1339 28.7209 41.2058 28.7255 39.7799C28.731 38.1127 27.5389 37.4681 25.8078 37.6147V41.9027ZM25.7865 43.2561L25.7859 46.1478H26.4751L26.4757 47.3588H24.6708V36.124H25.0746C27.5092 36.124 30.0189 36.4517 30.0448 39.4794C30.0693 42.3318 28.5864 43.3382 25.7865 43.2561Z" fill="#1A2128"/>
<path fill-rule="evenodd" clip-rule="evenodd" d="M65.7128 69.2071L66.5865 73.3502L67.7913 73.0919L67.9695 73.9361L64.7463 74.6266L64.5684 73.7827L65.7699 73.5251L64.8962 69.382L65.7128 69.2071ZM70.3257 67.9651L71.6347 72.89L68.6612 73.6932L68.4396 72.8596L70.6067 72.2743L70.3164 71.1828L68.303 71.7264L68.0827 70.8976L70.0961 70.3537L69.7398 69.0132L67.5002 69.6181L67.2794 68.788L70.3257 67.9651ZM72.7127 66.991L74.2184 70.9454L75.3685 70.5003L75.6752 71.306L72.5991 72.4964L72.2923 71.6907L73.439 71.247L71.9333 67.2926L72.7127 66.991ZM77.4103 64.83L79.5479 69.4508L78.8254 69.7905L77.4011 66.7113L77.3058 70.505L76.5458 70.8621L74.4084 66.2412L75.1307 65.9016L76.5247 68.9151L76.6474 65.1888L77.4103 64.83ZM79.7466 65.6315L78.8954 65.8121C78.6935 65.2634 78.6443 64.7988 78.7489 64.4162C78.8539 64.0345 79.0868 63.7249 79.4476 63.4888C79.9007 63.192 80.3815 63.1279 80.8897 63.2951C81.4761 63.4885 81.9913 63.931 82.4362 64.6209C82.9059 65.3507 83.1107 66.028 83.0492 66.6544C82.9959 67.1972 82.731 67.6252 82.2525 67.9387C81.8632 68.1935 81.4505 68.2726 81.0156 68.1767C80.7056 68.1077 80.3863 67.9149 80.0574 67.5965L80.6204 66.9379C80.8141 67.1406 81.0164 67.2603 81.2279 67.2971C81.4401 67.3338 81.6357 67.2935 81.8146 67.1766C82.0713 67.0085 82.2084 66.7587 82.2247 66.4268C82.2417 66.0959 82.0828 65.6704 81.748 65.1507C81.4012 64.612 81.0753 64.2804 80.7708 64.1569C80.4659 64.0324 80.1874 64.0532 79.9348 64.2188C79.7488 64.3404 79.6358 64.5178 79.5943 64.7501C79.5528 64.9839 79.6032 65.2781 79.7466 65.6315ZM85.8999 64.3325L85.0565 63.1627L84.6824 63.4369C84.4309 63.6212 84.2727 63.7633 84.2079 63.8653C84.1438 63.9663 84.116 64.0851 84.126 64.2201C84.1349 64.3559 84.1879 64.4902 84.2857 64.6256C84.3838 64.762 84.4972 64.8566 84.6235 64.9065C84.7513 64.9565 84.8698 64.9652 84.9809 64.9337C85.0913 64.9012 85.2873 64.7813 85.5703 64.5741L85.8999 64.3325ZM84.1057 60.4111L87.0786 64.5359L85.9892 65.3335C85.5836 65.6308 85.3043 65.8047 85.151 65.8568C84.9065 65.939 84.6442 65.9229 84.3653 65.8102C84.0853 65.6967 83.8275 65.4761 83.5904 65.1478C83.3752 64.8492 83.2518 64.5582 83.2178 64.2749C83.1837 63.9916 83.2222 63.7478 83.3311 63.5433C83.4389 63.3398 83.6978 63.0869 84.1075 62.7868L84.5516 62.4616L83.43 60.9059L84.1057 60.4111ZM86.9793 57.7415L90.3635 61.5305L88.0758 63.6069L87.5035 62.9655L89.1703 61.4523L88.4203 60.6124L86.8712 62.0185L86.3015 61.3806L87.8506 59.9745L86.9293 58.9433L85.2062 60.5074L84.6357 59.8685L86.9793 57.7415ZM90.8598 56.6153L89.7945 55.7764L89.3159 56.3938C89.1063 56.6642 88.9866 56.8482 88.9548 56.9466C88.9229 57.0455 88.9288 57.1539 88.9707 57.2714C89.0133 57.3878 89.097 57.4958 89.2244 57.5959C89.3552 57.699 89.4834 57.7551 89.6108 57.7661C89.7386 57.7768 89.8545 57.7489 89.9567 57.6818C90.0605 57.6142 90.2227 57.4376 90.4427 57.1532L90.8598 56.6153ZM92.4448 57.8637L91.5232 57.1379L91.1832 57.5768C90.9795 57.8397 90.8583 58.0059 90.8187 58.076C90.7487 58.2031 90.728 58.3283 90.755 58.4535C90.7824 58.5778 90.8628 58.6921 90.9954 58.7967C91.1132 58.8896 91.2288 58.9395 91.3425 58.9448C91.4562 58.9502 91.5503 58.9234 91.6262 58.8641C91.701 58.8041 91.8751 58.5991 92.147 58.2482L92.4448 57.8637ZM93.6224 57.723L92.6 59.042C92.3215 59.4014 92.0929 59.6292 91.9137 59.7234C91.7359 59.8179 91.5247 59.8511 91.2813 59.8217C91.0398 59.7926 90.8131 59.6955 90.6053 59.5316C90.4131 59.3805 90.2731 59.2007 90.1846 58.9927C90.0964 58.7844 90.0675 58.5825 90.099 58.3874C89.879 58.5289 89.643 58.5886 89.3904 58.5674C89.1381 58.548 88.8922 58.443 88.6525 58.2543C88.3632 58.0263 88.1725 57.7617 88.0813 57.4642C87.9898 57.166 87.9954 56.9024 88.0965 56.6733C88.168 56.5139 88.391 56.1911 88.7673 55.7057L89.6367 54.5839L93.6224 57.723ZM92.0559 51.1101L96.199 54.0345L95.7415 54.693L92.9808 52.7441L94.7799 56.0776L94.2988 56.77L90.156 53.8456L90.6131 53.1874L93.3149 55.0944L91.5729 51.8055L92.0559 51.1101ZM93.6109 47.1677L98.3004 49.0775L97.9877 49.8579L96.1427 49.1064L95.5271 50.6419L97.3721 51.3934L97.0584 52.177L92.3685 50.267L92.6826 49.4834L94.7333 50.3184L95.3485 48.7831L93.2983 47.9479L93.6109 47.1677ZM95.3059 44.9225L99.1597 44.1117L98.9805 45.0404L96.219 45.4872L98.6375 46.8187L98.4722 47.6765L94.9659 45.5537C94.5388 45.2936 94.2469 45.0647 94.0891 44.8679C93.9324 44.6728 93.8761 44.4622 93.9191 44.2396C93.9602 44.0252 94.018 43.8382 94.091 43.6781L94.8329 43.8237C94.7973 43.9583 94.7725 44.0611 94.7588 44.1323C94.7207 44.3314 94.7347 44.4807 94.8025 44.5773C94.8714 44.6753 95.0389 44.7905 95.3059 44.9225ZM100.775 38.7766L100.849 39.1602C100.529 39.2007 100.267 39.1578 100.067 39.0314C99.8646 38.9043 99.742 38.7213 99.6957 38.4824C99.6498 38.2424 99.6954 38.0267 99.8357 37.8325C99.9747 37.6395 100.201 37.4994 100.512 37.4155L100.586 37.7979C100.267 37.8907 100.135 38.0867 100.193 38.3851C100.25 38.6824 100.445 38.8135 100.775 38.7766ZM94.0791 37.8599L99.0438 36.8871L99.1957 37.6759L95.8875 38.3241L99.5157 39.3353L99.6757 40.165L94.711 41.1378L94.5588 40.3491L97.7966 39.7147L94.2395 38.6932L94.0791 37.8599ZM93.2323 33.7287L98.197 32.756L98.3493 33.5447L95.0407 34.1929L98.6693 35.2041L98.8293 36.0338L93.8643 37.0066L93.712 36.2179L96.9502 35.5835L93.3931 34.5621L93.2323 33.7287ZM92.0574 30.3618L96.6413 28.2072L96.9943 28.97L95.0433 29.887C95.1422 30.0475 95.2544 30.1387 95.3763 30.1601C95.4993 30.182 95.7634 30.1629 96.1668 30.1027C96.5709 30.0437 96.8813 30.0341 97.0954 30.0736C97.3099 30.1132 97.4666 30.1901 97.5618 30.3038C97.6573 30.4173 97.7855 30.6294 97.947 30.9399L97.2599 31.263L97.2099 31.1554C97.1102 30.9392 96.9921 30.8164 96.8572 30.7856C96.7235 30.7554 96.495 30.7671 96.1749 30.8194C95.8538 30.8721 95.6323 30.891 95.5126 30.8766C95.3926 30.8636 95.2563 30.8137 95.1052 30.7291C95.1137 30.9293 95.0663 31.1193 94.96 31.2974C94.8559 31.4761 94.6566 31.7256 94.3625 32.0446L93.3479 33.1517L92.9323 32.2531L93.9054 31.2391C94.1554 30.9816 94.3195 30.7826 94.4017 30.643C94.4829 30.504 94.4869 30.3501 94.4147 30.1824L92.4104 31.1246L92.0574 30.3618ZM92.8608 27.9949L93.0545 28.8497C92.5137 29.0626 92.054 29.1202 91.6725 29.0216C91.2925 28.9226 90.9809 28.693 90.7405 28.3336C90.4383 27.882 90.3664 27.3985 90.5231 26.8836C90.705 26.2889 91.1347 25.7618 91.8114 25.3017C92.5271 24.8152 93.1949 24.5971 93.8172 24.6482C94.3566 24.6924 94.7859 24.9517 95.1052 25.429C95.3648 25.8168 95.4504 26.2311 95.363 26.6714C95.3 26.9849 95.1141 27.3103 94.804 27.6472L94.141 27.0914C94.3388 26.8925 94.454 26.6865 94.4869 26.4725C94.5195 26.2581 94.4762 26.0617 94.3569 25.8836C94.1858 25.6277 93.9358 25.4938 93.6061 25.4832C93.2775 25.4717 92.8582 25.6394 92.3489 25.9858C91.8203 26.345 91.4973 26.6793 91.3803 26.9883C91.2621 27.2978 91.2873 27.5781 91.4562 27.83C91.5799 28.0151 91.7577 28.126 91.9892 28.1636C92.2215 28.2015 92.5126 28.1456 92.8608 27.9949ZM87.3549 23.8025L91.1725 20.4575L93.192 22.7993L92.546 23.3655L91.0739 21.6587L90.2279 22.4002L91.5955 23.9861L90.9528 24.5491L89.5856 22.9632L88.5462 23.8737L90.0675 25.6379L89.4241 26.2017L87.3549 23.8025ZM86.393 18.5334L87.579 17.1582L88.2091 17.7103L87.3286 18.7315C87.1445 18.9449 87.0168 19.1113 86.946 19.2316C86.873 19.3519 86.849 19.4849 86.8708 19.6299C86.8934 19.7754 86.9942 19.9266 87.1727 20.083C87.4401 20.3176 87.7139 20.4347 87.9943 20.435L89.4248 18.7759L90.0553 19.3281L86.7371 23.176L86.107 22.6238L87.4427 21.0747C87.0764 20.9945 86.7682 20.8436 86.5182 20.6247C86.1718 20.321 85.9866 19.9859 85.9633 19.6197C85.94 19.2545 86.0833 18.8926 86.393 18.5334ZM81.0138 18.5375L84.0579 14.4656L84.6942 14.9491L82.6662 17.6625L86.0337 15.9665L86.7034 16.4753L83.6593 20.5472L83.0229 20.0636L85.0076 17.4081L81.6865 19.0484L81.0138 18.5375ZM76.8365 16.0007L79.4413 11.6302L80.5145 12.2804L79.3822 15.6524L81.7983 13.058L82.8744 13.7098L80.2693 18.0801L79.6042 17.6772L81.6546 14.2369L78.8975 17.2491L78.2054 16.8298L79.5553 12.9651L77.5046 16.4054L76.8365 16.0007ZM74.4111 12.1694C74.1653 12.701 74.0814 13.1462 74.1579 13.5056C74.2357 13.8659 74.4215 14.1156 74.7183 14.2552C75.0162 14.3952 75.3238 14.3787 75.6421 14.2074C75.9603 14.0361 76.2447 13.6773 76.4977 13.1307C76.7454 12.5947 76.8335 12.1543 76.7614 11.8073C76.69 11.4619 76.4994 11.2164 76.1909 11.0715C75.8825 10.9265 75.5709 10.9372 75.2582 11.1047C74.9441 11.2728 74.6618 11.6272 74.4111 12.1694ZM73.6152 11.8334C73.8701 11.2825 74.1598 10.8672 74.4866 10.5876C74.8125 10.307 75.1467 10.1406 75.4878 10.0888C75.8289 10.0367 76.1852 10.0983 76.5565 10.2728C77.0945 10.5257 77.4365 10.9378 77.5843 11.5116C77.731 12.0848 77.6279 12.7543 77.2741 13.5194C76.9168 14.2918 76.4576 14.812 75.8981 15.0783C75.4052 15.3155 74.8897 15.3064 74.3496 15.0524C73.8052 14.7965 73.4643 14.4044 73.3251 13.8765C73.1674 13.2733 73.2644 12.5919 73.6152 11.8334ZM68.7592 12.7926L70.406 7.97172L71.1954 8.24569L70.5475 10.1425L72.1009 10.6817L72.7487 8.78486L73.5415 9.0601L71.8947 13.8809L71.102 13.6057L71.822 11.4976L70.2688 10.9584L69.5488 13.0665L68.7592 12.7926ZM65.7254 9.33978C65.5747 9.90616 65.569 10.3595 65.7062 10.7C65.8448 11.0411 66.071 11.2545 66.3872 11.3399C66.7047 11.4258 67.0047 11.3557 67.2889 11.1312C67.5727 10.9068 67.7909 10.5038 67.9459 9.92106C68.0977 9.34997 68.1084 8.90069 67.9777 8.57172C67.8476 8.24398 67.6176 8.03569 67.2889 7.94708C66.9602 7.85825 66.6554 7.92326 66.3762 8.14282C66.0958 8.3632 65.8789 8.76193 65.7254 9.33978ZM64.8838 9.14807C65.0398 8.56107 65.2536 8.10115 65.5272 7.76855C65.7998 7.43529 66.1003 7.213 66.4273 7.10206C66.7542 6.9913 67.1159 6.9894 67.5113 7.09631C68.0848 7.25123 68.4928 7.59723 68.7371 8.13666C68.9804 8.67541 68.9941 9.35255 68.7774 10.168C68.5585 10.9911 68.1961 11.5839 67.691 11.9441C67.2461 12.264 66.737 12.3452 66.1612 12.1896C65.5812 12.033 65.1779 11.7065 64.95 11.2109C64.6907 10.6445 64.669 9.95654 64.8838 9.14807ZM60.9512 10.9569L61.9162 5.95185L62.7359 6.11253L62.325 8.24248C62.512 8.2563 62.6513 8.21806 62.7399 8.13154C62.8301 8.04398 62.9697 7.81743 63.1588 7.45314C63.349 7.08865 63.5236 6.83022 63.6812 6.67846C63.8389 6.52694 63.9926 6.44449 64.14 6.43343C64.2874 6.42238 64.5328 6.44277 64.8768 6.49337L64.7322 7.2438L64.6167 7.22106C64.3844 7.17558 64.2165 7.19959 64.1124 7.29164C64.0097 7.38282 63.8849 7.5758 63.7386 7.86758C63.592 8.16067 63.4772 8.35238 63.3951 8.44143C63.3142 8.53176 63.194 8.61357 63.0372 8.68687C63.2029 8.79804 63.3275 8.9483 63.4082 9.13937C63.4902 9.32958 63.5735 9.63862 63.6566 10.066L63.9488 11.5442L62.9832 11.355L62.7416 9.96527C62.6817 9.61013 62.6183 9.35934 62.5548 9.21036C62.4909 9.06222 62.3699 8.9685 62.1928 8.92895L61.7707 11.1174L60.9512 10.9569ZM58.2313 8.59741L58.2912 7.73625L59.5882 7.82785C59.5764 7.39981 59.4887 7.06401 59.3262 6.82152C59.1636 6.57817 58.9448 6.44725 58.6724 6.42813C58.2271 6.39665 57.9115 6.65767 57.7256 7.21214L56.9191 6.92566C57.0463 6.45024 57.2657 6.0955 57.5786 5.85943C57.8913 5.62344 58.2665 5.52112 58.7047 5.55212C59.2876 5.59319 59.7362 5.86391 60.0508 6.36689C60.3651 6.86868 60.4941 7.52883 60.4377 8.34472C60.3828 9.13343 60.1688 9.75251 59.7953 10.201C59.4217 10.6507 58.952 10.8545 58.3848 10.8146C57.4424 10.748 56.8987 10.1623 56.757 9.05756L57.6159 8.79423C57.6326 9.14661 57.7175 9.42141 57.8714 9.61905C58.0254 9.8167 58.2256 9.9251 58.4736 9.94253C59.022 9.98122 59.3734 9.56315 59.5284 8.68882L58.2313 8.59741ZM51.0389 3.93339L51.425 3.89941C51.4317 4.22428 51.3619 4.48193 51.2163 4.66975C51.0697 4.85907 50.8764 4.96325 50.6359 4.98416C50.3945 5.00582 50.1864 4.93711 50.0093 4.77618C49.8335 4.61673 49.719 4.37514 49.6688 4.05438L50.0536 4.0204C50.1117 4.35012 50.2915 4.50247 50.5918 4.47596C50.8912 4.44944 51.0409 4.26834 51.0389 3.93339ZM49.4346 10.5506L48.9937 5.47146L49.7879 5.40126L50.0816 8.78594L51.4585 5.25376L52.2938 5.1802L52.7346 10.2594L51.9405 10.3295L51.6529 7.01703L50.2734 10.4766L49.4346 10.5506ZM47.8514 10.6139L47.4106 5.53457L48.2423 5.46138L48.6832 10.5406L47.8514 10.6139ZM44.3816 8.70345L44.4978 10.0433L45.3776 9.96568C45.6066 9.94548 45.7706 9.91576 45.8699 9.87581C45.9694 9.83604 46.052 9.75359 46.1195 9.63201C46.1857 9.5096 46.2129 9.37357 46.2 9.22354C46.1608 8.77298 45.8597 8.57317 45.2954 8.62291L44.3816 8.70345ZM43.7407 10.9765L43.2999 5.89715L44.1316 5.82396L44.307 7.84379L45.4893 7.73943C45.9293 7.70056 46.2903 7.81295 46.573 8.07523C46.8559 8.33748 47.0176 8.70218 47.0581 9.16932C47.0912 9.54997 47.0168 9.90448 46.8348 10.2339C46.6531 10.5635 46.2958 10.7512 45.7619 10.7982L43.7407 10.9765ZM39.5387 11.6458L38.5738 6.64086L39.3932 6.48018L39.773 8.4495L41.3856 8.13345L41.0059 6.16436L41.8289 6.00304L42.7939 11.0079L41.9708 11.1693L41.549 8.98082L39.9363 9.29665L40.3582 11.4853L39.5387 11.6458ZM35.4898 12.678L34.0958 7.77684L34.8982 7.54496L35.4468 9.47327L37.0259 9.01674L36.4773 7.08847L37.2833 6.85553L38.6775 11.7565L37.8715 11.9894L37.2618 9.84646L35.6827 10.303L36.2924 12.4459L35.4898 12.678ZM31.8966 13.9245L30.0841 9.16465L32.9579 8.05249L33.2647 8.85819L31.1703 9.66856L31.5722 10.7238L33.5181 9.9708L33.8232 10.7718L31.8772 11.525L32.3706 12.8206L34.5353 11.9828L34.8408 12.7853L31.8966 13.9245ZM27.896 13.1762L28.4243 14.4305L29.1396 14.1243C29.4529 13.9904 29.6465 13.8881 29.7217 13.8174C29.7968 13.7464 29.844 13.6488 29.8638 13.5258C29.8824 13.4029 29.8611 13.2676 29.7981 13.118C29.7331 12.9637 29.6479 12.8521 29.5421 12.78C29.435 12.7082 29.3205 12.6761 29.1986 12.6846C29.0756 12.6933 28.8489 12.7683 28.5194 12.9094L27.896 13.1762ZM27.11 11.3095L27.5671 12.3947L28.0754 12.1773C28.3802 12.0468 28.5662 11.9607 28.6345 11.9186C28.757 11.8417 28.8352 11.7424 28.8719 11.6196C28.9073 11.4974 28.8923 11.3582 28.8266 11.202C28.7682 11.0632 28.6914 10.9631 28.5942 10.9028C28.4972 10.8426 28.402 10.8201 28.3073 10.8347C28.2128 10.8507 27.9622 10.945 27.5557 11.1189L27.11 11.3095ZM26.0126 10.8573L27.5411 10.2033C27.9573 10.025 28.267 9.93764 28.469 9.94272C28.6701 9.94698 28.8704 10.0212 29.0694 10.1657C29.2668 10.3094 29.4181 10.5051 29.5214 10.7499C29.6165 10.9761 29.6528 11.2018 29.6298 11.4268C29.6068 11.6521 29.5351 11.8428 29.4137 11.9981C29.6743 11.9818 29.9094 12.0449 30.12 12.187C30.3315 12.3273 30.4961 12.5394 30.6148 12.8212C30.7584 13.1624 30.798 13.4871 30.7343 13.7917C30.6711 14.0971 30.5393 14.3251 30.3405 14.4758C30.2016 14.5804 29.8512 14.7536 29.2885 14.9944L27.9887 15.5506L26.0126 10.8573ZM25.7419 16.7631L23.7049 13.0584L22.6274 13.6605L22.2125 12.9058L25.0943 11.2955L25.5094 12.0502L24.435 12.6504L26.472 16.355L25.7419 16.7631ZM22.4646 16.4615L23.309 16.2508C23.5297 16.7922 23.5948 17.2546 23.5038 17.6408C23.4121 18.0259 23.1899 18.3436 22.8376 18.5923C22.395 18.9047 21.9165 18.9859 21.4031 18.8365C20.81 18.6639 20.2798 18.2399 19.8118 17.566C19.3168 16.8532 19.0888 16.1835 19.1285 15.5554C19.1629 15.0109 19.4127 14.574 19.8805 14.2437C20.2606 13.9753 20.67 13.882 21.1084 13.9623C21.4204 14.0203 21.7461 14.2018 22.0858 14.5085L21.546 15.1867C21.3455 14.9907 21.1391 14.8781 20.9262 14.849C20.713 14.8197 20.5189 14.8668 20.3443 14.9901C20.0936 15.1671 19.9653 15.4214 19.9604 15.7537C19.9547 16.0853 20.1282 16.5046 20.4809 17.0123C20.8463 17.5386 21.1836 17.8582 21.4921 17.9711C21.8011 18.0848 22.0786 18.0542 22.3255 17.8799C22.507 17.7519 22.6139 17.5705 22.6472 17.3369C22.6807 17.1016 22.6202 16.8096 22.4646 16.4615ZM16.397 18.0807L17.2801 19.2203L17.6447 18.9332C17.8898 18.74 18.0427 18.5923 18.1041 18.4882C18.1646 18.3851 18.1884 18.2654 18.1736 18.1309C18.1599 17.9955 18.1024 17.8631 18.0001 17.7311C17.897 17.5983 17.7806 17.5078 17.6527 17.4623C17.5232 17.4168 17.4045 17.4123 17.2945 17.4478C17.1855 17.484 16.9936 17.6108 16.7181 17.8278L16.397 18.0807ZM18.3259 21.9367L15.2121 17.919L16.2728 17.0835C16.6681 16.7722 16.9414 16.5886 17.0925 16.5312C17.3343 16.4404 17.597 16.4474 17.8795 16.5501C18.1631 16.6536 18.4287 16.8651 18.6765 17.1849C18.902 17.4757 19.0357 17.7622 19.0794 18.044C19.123 18.326 19.0933 18.5711 18.9914 18.7791C18.8909 18.9865 18.6408 19.2482 18.2417 19.5625L17.8093 19.9032L18.9838 21.4185L18.3259 21.9367ZM15.4782 21.9539L13.7165 21.0836L14.7064 22.7883L15.4782 21.9539ZM17.9927 22.193L17.3719 22.8642L16.2838 22.3414L15.1548 23.5619L15.7624 24.6039L15.1552 25.2605L12.5574 20.5929L13.162 19.9391L17.9927 22.193ZM10.7953 23.9823L10.1044 25.0148C11.3413 25.8558 12.2047 26.5803 12.69 27.1881L13.5717 25.8702L10.7953 23.9823ZM14.0387 25.1725L14.2394 24.8724L15.8621 25.9756L15.4782 26.5494L14.5653 25.9286L13.1007 28.1175L14.0136 28.7383L13.6299 29.3119L12.0071 28.2087L12.2 27.9203C11.9831 27.6081 11.686 27.2786 11.3127 26.9346C10.9376 26.5909 10.3388 26.1378 9.51492 25.5775L8.95456 25.1965L10.5554 22.804L14.0387 25.1725ZM10.4495 29.8613L6.52352 29.5699L6.94957 28.7268L9.72617 29.0645L7.76548 27.1126L8.1589 26.3342L10.949 29.3489C11.2884 29.7176 11.5064 30.0188 11.6043 30.2517C11.7016 30.4828 11.6983 30.701 11.596 30.9031C11.4978 31.0976 11.3911 31.2615 11.2775 31.3949L10.6039 31.0489C10.6749 30.9295 10.7266 30.8375 10.7593 30.7729C10.8505 30.592 10.8775 30.4445 10.8389 30.3329C10.7997 30.2194 10.6703 30.0624 10.4495 29.8613ZM8.73086 32.5643L9.18036 31.8136C9.71628 32.0389 10.0867 32.3194 10.2931 32.6574C10.4985 32.9953 10.564 33.3783 10.4894 33.805C10.3955 34.3414 10.1141 34.7399 9.64649 35.0003C9.10595 35.301 8.4336 35.379 7.62991 35.2362C6.77988 35.0851 6.14906 34.7741 5.73649 34.3017C5.37889 33.8922 5.24888 33.405 5.34815 32.838C5.42853 32.3775 5.65278 32.0196 6.01901 31.7639C6.28041 31.5826 6.6382 31.4787 7.09336 31.4534L7.18741 32.3175C6.90804 32.322 6.68331 32.3896 6.51211 32.5207C6.34094 32.6518 6.23678 32.8236 6.19966 33.0352C6.14654 33.3391 6.23426 33.6103 6.46384 33.849C6.69239 34.0873 7.1094 34.2603 7.71488 34.3678C8.3423 34.4794 8.80509 34.4652 9.10235 34.3251C9.40046 34.1852 9.57523 33.9657 9.62775 33.6662C9.66609 33.4465 9.61445 33.242 9.47425 33.0531C9.33301 32.8629 9.08505 32.6996 8.73086 32.5643ZM6.96413 38.8792C7.53694 38.981 7.98536 38.9474 8.30985 38.78C8.63496 38.611 8.82617 38.3653 8.8831 38.0403C8.94 37.7139 8.84473 37.4187 8.59803 37.153C8.35159 36.8876 7.93436 36.7035 7.3451 36.5987C6.76743 36.4961 6.32256 36.5242 6.00886 36.6842C5.69623 36.8433 5.51039 37.0924 5.45149 37.4304C5.39223 37.7681 5.48298 38.0686 5.72468 38.3298C5.96693 38.5923 6.37972 38.7752 6.96413 38.8792ZM6.84796 39.741C6.25426 39.6356 5.78116 39.4611 5.42853 39.2152C5.07552 38.9704 4.82957 38.6879 4.69177 38.3693C4.55361 38.0508 4.52027 37.6877 4.59139 37.2812C4.69473 36.6916 5.00107 36.2519 5.51261 35.9596C6.02382 35.6683 6.69176 35.5954 7.51649 35.742C8.34907 35.89 8.96637 36.2024 9.36631 36.6782C9.72135 37.0971 9.84593 37.6013 9.74243 38.1929C9.63805 38.7893 9.35049 39.2226 8.88077 39.4949C8.34359 39.8046 7.66577 39.8864 6.84796 39.741ZM9.78584 43.4188L4.87883 44.4705L4.27172 41.5917L5.10923 41.4123L5.54262 43.4677L9.61234 42.5957L9.78584 43.4188ZM4.22393 48.3323L4.14355 47.9502C4.46211 47.9039 4.72437 47.9422 4.92736 48.065C5.13145 48.1887 5.2574 48.3693 5.30777 48.6073C5.35815 48.8465 5.31592 49.063 5.17924 49.2598C5.04367 49.4551 4.81993 49.599 4.5099 49.6885L4.42952 49.3076C4.74733 49.2092 4.87513 49.0107 4.81253 48.7134C4.7503 48.4171 4.55323 48.2894 4.22393 48.3323ZM10.9347 49.131L5.98738 50.1911L5.82165 49.405L9.11835 48.6987L5.47298 47.7515L5.29851 46.9248L10.2459 45.8647L10.4116 46.6508L7.1853 47.3419L10.7594 48.3007L10.9347 49.131ZM12.8673 52.879L8.44372 55.3509L8.05726 54.6481L11.0051 53.001L7.24431 53.1695L6.83785 52.4304L11.2614 49.9584L11.6479 50.6613L8.7629 52.2733L12.4591 52.1366L12.8673 52.879ZM14.9866 55.6829L11.0008 58.8218L10.4869 58.1587L12.1832 56.8227C12.051 56.6886 11.9211 56.6253 11.7978 56.6321C11.6727 56.6384 11.42 56.7171 11.0401 56.8672C10.6595 57.0163 10.3595 57.0961 10.1417 57.1062C9.92416 57.1162 9.75443 57.0769 9.63616 56.9877C9.51766 56.8986 9.34564 56.7209 9.1188 56.4552L9.7165 55.9845L9.78881 56.078C9.93468 56.2661 10.077 56.359 10.2153 56.3583C10.3521 56.3575 10.572 56.2942 10.8722 56.1707C11.1735 56.0466 11.385 55.9779 11.5049 55.965C11.6249 55.9503 11.7687 55.9679 11.9348 56.0162C11.8821 55.823 11.8859 55.6273 11.9494 55.4296C12.0112 55.2317 12.1494 54.9435 12.3649 54.5659L13.1064 53.2571L13.7119 54.0384L12.99 55.247C12.8041 55.5548 12.6887 55.7858 12.6396 55.9405C12.5916 56.0944 12.6217 56.2453 12.7297 56.3921L14.4726 55.0196L14.9866 55.6829ZM14.665 58.1644L14.3267 57.3566C14.8225 57.052 15.2655 56.915 15.6581 56.9451C16.0498 56.9764 16.3957 57.1479 16.6945 57.4597C17.0697 57.8514 17.2241 58.3151 17.1583 58.8496C17.0817 59.467 16.7493 60.0615 16.1621 60.633C15.5413 61.2374 14.9208 61.569 14.2993 61.6278C13.7604 61.6788 13.2932 61.4984 12.8964 61.0842C12.574 60.7477 12.4185 60.3548 12.4286 59.9057C12.4368 59.5858 12.5635 59.233 12.8108 58.8471L13.5597 59.2783C13.3992 59.5087 13.3212 59.7318 13.3259 59.9482C13.3303 60.1652 13.407 60.3509 13.555 60.5057C13.7677 60.7276 14.037 60.8155 14.3636 60.7684C14.6891 60.7223 15.073 60.4838 15.5151 60.0532C15.9734 59.6071 16.234 59.2213 16.2964 58.8966C16.3595 58.571 16.2859 58.2996 16.0765 58.0809C15.9226 57.9204 15.7282 57.8422 15.4942 57.8456C15.2585 57.849 14.9817 57.9551 14.665 58.1644ZM18.9986 62.618L19.8676 61.5741L19.2721 61.0703C19.0115 60.8497 18.8331 60.7224 18.7365 60.687C18.6398 60.6517 18.532 60.6536 18.4142 60.6919C18.2972 60.7307 18.1873 60.8113 18.0836 60.9358C17.9767 61.0642 17.9168 61.1915 17.9013 61.3192C17.8863 61.448 17.9099 61.5656 17.9727 61.6712C18.0364 61.7777 18.2057 61.9473 18.4798 62.1791L18.9986 62.618ZM17.7056 64.1712L18.4574 63.2681L18.0343 62.9102C17.7806 62.6958 17.62 62.5676 17.5519 62.5256C17.4283 62.4505 17.305 62.4253 17.1798 62.4482C17.0558 62.4716 16.9395 62.5483 16.8313 62.6783C16.7351 62.7938 16.6816 62.9083 16.6723 63.0229C16.6631 63.1374 16.6865 63.2331 16.7423 63.3115C16.7993 63.3891 16.9964 63.5714 17.3347 63.8577L17.7056 64.1712ZM17.8041 65.3624L16.5321 64.2864C16.1857 63.9933 15.9678 63.7548 15.8807 63.5712C15.793 63.3884 15.7677 63.1751 15.805 62.9306C15.8425 62.6881 15.9467 62.4633 16.1162 62.2595C16.273 62.0714 16.4558 61.9364 16.6654 61.8548C16.8747 61.773 17.0761 61.7509 17.2684 61.7896C17.1357 61.5628 17.0847 61.3231 17.1146 61.0693C17.1427 60.8158 17.2555 60.5715 17.4507 60.3369C17.6868 60.0532 17.9559 59.8702 18.254 59.7892C18.5527 59.7072 18.8139 59.7221 19.0376 59.8322C19.193 59.9095 19.5055 60.1456 19.9735 60.5418L21.0552 61.4565L17.8041 65.3624ZM22.8894 65.7488C23.2061 65.2572 23.3507 64.8279 23.3244 64.4613C23.2972 64.0938 23.1477 63.8203 22.873 63.6405C22.5974 63.46 22.2905 63.433 21.9515 63.5583C21.6129 63.6832 21.2817 63.9986 20.9557 64.5044C20.6363 65.0003 20.4883 65.4241 20.5117 65.7777C20.5349 66.1301 20.6899 66.3995 20.9753 66.5864C21.2606 66.7732 21.5705 66.8063 21.9034 66.6843C22.2378 66.5622 22.566 66.2506 22.8894 65.7488ZM23.6309 66.1934C23.3027 66.703 22.9584 67.0739 22.5962 67.3049C22.2348 67.537 21.8806 67.655 21.5357 67.6584C21.1908 67.662 20.8465 67.5511 20.5031 67.3262C20.0051 67.0002 19.7232 66.5441 19.6562 65.9552C19.59 65.3669 19.7844 64.7185 20.2406 64.0105C20.701 63.2958 21.2275 62.845 21.8182 62.6599C22.3394 62.4941 22.8485 62.5755 23.3484 62.9028C23.8521 63.2324 24.1354 63.6685 24.2004 64.2109C24.2733 64.8302 24.0831 65.4914 23.6309 66.1934ZM27.1813 65.2188L25.2085 68.9587L26.2962 69.5416L25.8944 70.3035L22.9849 68.744L23.3868 67.9823L24.4713 68.5636L26.444 64.8237L27.1813 65.2188ZM28.7121 67.9944L28.0667 67.4063C28.3884 66.9192 28.7323 66.6059 29.1009 66.4663C29.4687 66.3275 29.8544 66.3356 30.2557 66.491C30.7603 66.6863 31.0944 67.0408 31.2589 67.5532C31.4484 68.1453 31.3961 68.8256 31.1037 69.5937C30.7944 70.406 30.3711 70.9709 29.8324 71.2891C29.3654 71.5647 28.8664 71.6004 28.3332 71.394C27.9 71.2265 27.594 70.9364 27.4151 70.5252C27.2883 70.2319 27.2555 69.8581 27.3177 69.4028L28.1772 69.4747C28.1283 69.752 28.1511 69.9873 28.2462 70.1815C28.3412 70.3762 28.4886 70.512 28.6876 70.589C28.9733 70.6997 29.2543 70.6646 29.5303 70.4829C29.8061 70.3023 30.054 69.9227 30.2743 69.344C30.5026 68.7444 30.577 68.2839 30.4974 67.9629C30.4181 67.6409 30.2376 67.4263 29.9562 67.3173C29.7496 67.2374 29.5406 67.2493 29.3298 67.3521C29.1177 67.4556 28.9113 67.6697 28.7121 67.9944ZM34.6945 70.8918C34.8645 70.3312 34.8859 69.8785 34.7605 69.5333C34.634 69.1876 34.4154 68.9661 34.1023 68.8696C33.788 68.7729 33.4854 68.8322 33.1938 69.0466C32.9025 69.2609 32.6704 69.656 32.4954 70.2328C32.324 70.7983 32.2976 71.2467 32.4168 71.5802C32.5354 71.9124 32.7581 72.1285 33.0834 72.2289C33.4089 72.3291 33.7159 72.275 34.0024 72.0652C34.2904 71.8548 34.521 71.464 34.6945 70.8918ZM35.5288 71.1131C35.3525 71.6944 35.1231 72.1464 34.8379 72.4692C34.5541 72.7927 34.2461 73.0044 33.9155 73.1036C33.5849 73.2029 33.2236 73.1918 32.8319 73.0711C32.2641 72.8962 31.8684 72.5359 31.643 71.9885C31.4185 71.4414 31.428 70.7641 31.673 69.9569C31.92 69.1418 32.3029 68.5623 32.8203 68.2201C33.2757 67.916 33.7873 67.8528 34.3574 68.0284C34.9317 68.2054 35.3234 68.5459 35.5342 69.0492C35.7735 69.6243 35.7716 70.3127 35.5288 71.1131ZM38.0359 73.5816L38.383 72.1785L37.9341 72.0656C37.6322 71.9898 37.4226 71.9591 37.3033 71.9744C37.1855 71.99 37.0775 72.0448 36.9812 72.1394C36.8837 72.2335 36.8159 72.3608 36.7756 72.5232C36.7351 72.6868 36.7362 72.8352 36.7794 72.9648C36.8237 73.0956 36.893 73.1927 36.9885 73.2581C37.084 73.3225 37.3012 73.3969 37.6406 73.4822L38.0359 73.5816ZM39.8626 69.6753L38.6391 74.6224L37.3328 74.294C36.8462 74.1718 36.5344 74.0679 36.3963 73.9829C36.1764 73.8469 36.0204 73.6339 35.9266 73.3461C35.833 73.0571 35.8347 72.7162 35.9321 72.3222C36.0208 71.964 36.1623 71.6816 36.3556 71.4733C36.5494 71.265 36.7592 71.1379 36.9845 71.0905C37.2086 71.0427 37.5671 71.0803 38.0585 71.2038L38.591 71.3377L39.0525 69.4717L39.8626 69.6753Z" fill="#FFF100"/>
<path fill-rule="evenodd" clip-rule="evenodd" d="M47.2812 75.4133V71.5608H48.2392C48.3724 71.5561 48.5056 71.5678 48.636 71.5955C48.7575 71.6248 48.8687 71.6872 48.9576 71.776C49.0558 71.8828 49.1283 72.011 49.1697 72.1508C49.2253 72.321 49.253 72.4992 49.2519 72.6784C49.2613 72.9709 49.1877 73.26 49.0397 73.5113C48.8637 73.7569 48.5707 73.887 48.2734 73.8515H47.5892V75.4202L47.2812 75.4133ZM47.6302 73.3933H48.3144C48.491 73.4113 48.6656 73.3445 48.7866 73.2129C48.8878 73.0595 48.9359 72.8764 48.9234 72.6923C48.9278 72.5489 48.8997 72.4064 48.8413 72.2758C48.7988 72.1745 48.7208 72.0929 48.6224 72.0467C48.5158 72.0302 48.4073 72.0302 48.3008 72.0467H47.6165L47.6302 73.3933Z" fill="#FFE600"/>
<path fill-rule="evenodd" clip-rule="evenodd" d="M50.0869 71.561H50.4017V74.6153L51.7701 71.561H52.1123V75.4136H51.7975V72.3663L50.429 75.4136H50.0801L50.0869 71.561Z" fill="#FFE600"/>
<path fill-rule="evenodd" clip-rule="evenodd" d="M53.083 75.4136V71.561H53.432V73.1437H54.8006V71.561H55.1495V75.4136H54.8006V73.5949H53.432V75.4136H53.083Z" fill="#FFE600"/>
<path fill-rule="evenodd" clip-rule="evenodd" d="M55.7998 75.4136L56.8056 73.4214L55.9161 71.561H56.3335L56.8125 72.5537C56.9083 72.755 56.9767 72.9146 57.0177 73.0188C57.0793 72.8799 57.1478 72.7342 57.2299 72.5814L57.7499 71.561H58.1262L57.223 73.3936L58.2015 75.4136H57.7773L57.093 74.0253L56.9835 73.7893L56.8672 74.053L56.183 75.3928L55.7998 75.4136Z" fill="#FFE600"/>
<path fill-rule="evenodd" clip-rule="evenodd" d="M46.8704 70.8042C46.1826 71.5579 45.8119 72.554 45.8372 73.5807C45.8212 74.6058 46.1906 75.5986 46.8704 76.3573H46.3024C45.5959 75.6127 45.2096 74.6141 45.2282 73.5807C45.2169 72.5488 45.6023 71.5529 46.3024 70.8042H46.8704Z" fill="#FFE600"/>
<path fill-rule="evenodd" clip-rule="evenodd" d="M59.1861 70.8042C59.8864 71.5529 60.2717 72.5488 60.2605 73.5807C60.2791 74.6141 59.8927 75.6127 59.1861 76.3573H58.6182C59.298 75.5986 59.6675 74.6058 59.6515 73.5807C59.6767 72.554 59.3059 71.5579 58.6182 70.8042H59.1861Z" fill="#FFE600"/>
</svg>
