<svg width="159" height="120" viewBox="0 0 159 120" fill="none" xmlns="http://www.w3.org/2000/svg">
<g clip-path="url(#clip0)">
<path fill-rule="evenodd" clip-rule="evenodd" d="M79.4902 -0.00292969C123.384 -0.00292969 158.98 26.8585 158.98 59.9799C158.98 93.1013 123.384 119.963 79.4902 119.963C35.5964 119.963 0 93.1013 0 59.9799C0 26.8585 35.5964 -0.00292969 79.4902 -0.00292969Z" fill="#F7E123"/>
<path fill-rule="evenodd" clip-rule="evenodd" d="M79.4923 2.5293V2.53878H79.4892H79.4828V2.5293C58.1073 2.52985 38.782 9.04857 24.8202 19.5841C11.058 29.9691 2.54353 44.2561 2.54297 59.9793H2.55306V59.9816V59.9851H2.54297C2.54409 75.7076 11.058 89.9934 24.8193 100.378C38.7817 110.915 58.1086 117.434 79.486 117.434V117.424H79.4892H79.4955V117.434C100.871 117.433 120.196 110.915 134.158 100.379C147.921 89.9941 156.435 75.707 156.435 59.9838H156.426V59.9816V59.9781H156.435C156.434 44.2558 147.921 29.9697 134.159 19.5847C120.197 9.04857 100.87 2.5293 79.4923 2.5293Z" fill="#353980"/>
<path fill-rule="evenodd" clip-rule="evenodd" d="M79.493 18.1357V18.1429H79.4907H79.4863V18.1357C64.5865 18.1364 51.1159 22.8843 41.3839 30.5578C31.7909 38.1221 25.8557 48.5282 25.8555 59.9801H25.8624V59.9817V59.9843H25.8555C25.8561 71.4357 31.7909 81.8411 41.3832 89.4052C51.1157 97.0792 64.5874 101.827 79.4885 101.828V101.821H79.4907H79.4952V101.828C94.395 101.827 107.866 97.0792 117.598 89.4056C127.19 81.8414 133.126 71.4353 133.126 59.9833H133.119V59.9817V59.9792H133.126C133.125 48.5277 127.19 38.1223 117.598 30.5586C107.866 22.8843 94.3939 18.136 79.493 18.1357Z" fill="#F7E123"/>
<path fill-rule="evenodd" clip-rule="evenodd" d="M80.4871 21.3193H79.4934H79.4906H77.8303C71.3423 21.4813 65.162 22.5898 59.5071 24.4724C58.2088 24.9046 56.8998 25.3958 55.5846 25.9419C54.2965 26.4766 53.0552 27.0469 51.8654 27.6476C48.7898 29.2007 45.9402 31.0112 43.3664 33.0408L43.3632 33.0367V33.0434C42.0911 34.0461 40.9026 35.0863 39.8052 36.1586C38.6914 37.2461 37.655 38.3759 36.7024 39.5418C32.0799 45.2005 29.3062 51.8396 29.0547 58.9233V59.9807V59.9822V59.9854V61.0314C29.1632 64.1114 29.7483 67.1107 30.7558 69.9811C31.1271 71.0391 31.5487 72.0666 32.017 73.0592C34.4788 78.2781 38.385 82.9981 43.3654 86.9243L43.4088 86.9675C44.671 87.9597 46.0027 88.9022 47.3967 89.7874C48.7515 90.6479 50.2342 91.4865 51.838 92.2978C59.5387 96.1938 68.6851 98.5048 78.5339 98.6458H79.4886H79.4906H79.4957H81.0834C87.5966 98.4902 93.7996 97.382 99.4743 95.4927C100.773 95.0606 102.082 94.5694 103.397 94.0232C104.685 93.4885 105.926 92.9186 107.116 92.3175C110.192 90.7645 113.041 88.9536 115.615 86.9243L115.618 86.9284V86.9217C116.89 85.919 118.079 84.8788 119.176 83.8065C120.29 82.719 121.326 81.5892 122.279 80.4233C126.897 74.771 129.67 68.1389 129.927 61.0637V59.9844V59.9822V59.98V58.8855C129.814 55.8217 129.228 52.8398 128.226 49.984C127.855 48.926 127.433 47.8985 126.965 46.9059C124.503 41.687 120.597 36.967 115.616 33.0408L115.567 32.991L115.563 32.9878C114.303 31.999 112.974 31.0601 111.585 30.1777C110.23 29.3172 108.747 28.4786 107.143 27.6673C99.4526 23.7764 90.3212 21.4654 80.4871 21.3193Z" fill="#BBBDBF"/>
<path fill-rule="evenodd" clip-rule="evenodd" d="M80.3036 23.3658L80.3042 29.9665C81.7735 29.9459 83.2397 29.8754 84.6908 29.7548C83.3652 27.2854 81.8926 25.1262 80.3036 23.3658ZM80.3042 31.5462L80.3052 44.4406C83.5468 44.4359 86.7648 44.334 89.9202 44.1371C88.8215 39.4107 87.3058 35.0311 85.4669 31.2687C83.7622 31.4284 82.0343 31.5215 80.3042 31.5462ZM80.3052 46.0238L80.3061 59.3005H91.8793C91.861 58.7086 91.8368 58.1177 91.8052 57.5278C91.5891 53.4764 91.0608 49.488 90.2656 45.698C86.9975 45.9079 83.6633 46.0178 80.3052 46.0238ZM80.3061 60.8882L80.3071 74.6961C83.7935 74.7024 87.2545 74.8202 90.642 75.0466C91.5597 70.4381 91.9587 65.6472 91.9121 60.8882H80.3061ZM80.3071 76.2786L80.308 89.1788C82.0631 89.2048 83.8159 89.3 85.5447 89.4648C87.709 85.5288 89.2722 81.1717 90.3087 76.6085C87.0294 76.3952 83.6812 76.2837 80.3071 76.2786ZM80.308 90.7597L80.3087 96.8054C81.9539 95.0177 83.4063 93.0618 84.6752 90.9715C83.2308 90.8511 81.7707 90.781 80.308 90.7597ZM78.719 96.8044L78.7184 90.7562C77.2519 90.7708 75.7877 90.8346 74.3384 90.948C75.6105 93.0468 77.0674 95.0104 78.719 96.8044ZM78.7184 89.1743L78.7174 76.2837C75.3928 76.3116 72.0509 76.4431 68.7327 76.6806C69.7673 81.2047 71.3206 85.525 73.465 89.4318C75.1981 89.2762 76.956 89.1901 78.7184 89.1743ZM78.7174 74.7002L78.7164 60.8882H67.1101C67.0638 65.6707 67.4674 70.4854 68.3962 75.1145C71.8243 74.8647 75.2794 74.7275 78.7174 74.7002ZM78.7164 59.3005L78.7155 46.0197C75.403 45.9933 72.0743 45.8654 68.7694 45.6333C67.9666 49.4423 67.4325 53.452 67.2155 57.5259C67.1839 58.1164 67.1606 58.7077 67.1424 59.3005H78.7164ZM78.7155 44.4359L78.7145 31.55C76.9799 31.5338 75.2494 31.4494 73.5433 31.2979C71.719 35.0352 70.2132 39.3805 69.118 44.0678C72.3085 44.2876 75.5202 44.4095 78.7155 44.4359ZM78.7145 29.9697L78.7139 23.3779C77.1229 25.1405 75.6488 27.3025 74.3228 29.7745C75.7755 29.889 77.2443 29.9548 78.7145 29.9697ZM64.475 90.953C66.3699 90.4631 68.3519 90.0742 70.3827 89.7871C70.8373 89.723 71.2947 89.6639 71.7547 89.6096C69.6648 85.659 68.1463 81.3254 67.1306 76.8035C65.1259 76.9683 63.1327 77.1731 61.1606 77.4172C58.2571 77.7774 55.4023 78.2232 52.6267 78.7582C52.9584 79.2961 53.3054 79.8286 53.6687 80.3547C56.3935 84.2999 59.9977 87.9036 64.475 90.953ZM70.6075 91.3563C69.1362 91.5643 67.6981 91.825 66.3067 92.139C69.4305 94.0617 72.939 95.7268 76.8289 97.0734C75.2319 95.2314 73.8216 93.2329 72.5882 91.1103C71.9229 91.1814 71.2621 91.2636 70.6075 91.3563ZM87.2503 89.6503C89.7443 89.9573 92.1726 90.4123 94.4697 91.015C98.9942 87.9502 102.632 84.3212 105.377 80.3458C105.769 79.7784 106.143 79.203 106.499 78.6219C101.941 77.7475 97.0214 77.1086 91.9125 76.7209C90.8941 81.2879 89.3629 85.6647 87.2503 89.6503ZM92.6441 92.1908C90.6455 91.7307 88.5569 91.3811 86.4213 91.142C85.192 93.2535 83.7884 95.2416 82.1988 97.0747C86.0568 95.7398 89.5394 94.0918 92.6441 92.1908ZM51.7767 77.309C54.7677 76.7171 57.8431 76.2294 60.9672 75.8424C62.8946 75.6035 64.8428 75.4029 66.8018 75.2393C65.877 70.5597 65.4738 65.7063 65.5189 60.8882H47.3463C47.4245 66.5299 48.9053 72.146 51.7767 77.309ZM92.2387 75.1616C97.5351 75.5712 102.631 76.2475 107.34 77.1747C110.165 72.0488 111.621 66.4811 111.699 60.8882H93.5037C93.5491 65.6793 93.1516 70.506 92.2387 75.1616ZM47.362 59.3005H65.5502C65.5683 58.681 65.5929 58.0625 65.6258 57.4452C65.8432 53.366 66.3753 49.3451 67.1746 45.5135C65.0898 45.3459 63.0169 45.1357 60.9672 44.8826C57.8497 44.4978 54.7811 44.0117 51.7955 43.4229C49.0145 48.4538 47.5397 53.8734 47.362 59.3005ZM93.4721 59.3005H111.684C111.509 53.921 110.059 48.5475 107.323 43.5541C102.507 44.4984 97.2871 45.1817 91.862 45.5872C92.6527 49.3972 93.1785 53.3929 93.3949 57.4471C93.4278 58.0638 93.4536 58.6817 93.4721 59.3005ZM52.6405 41.9722C55.4116 42.5047 58.2615 42.9495 61.1606 43.3077C63.2594 43.5668 65.3826 43.7795 67.5178 43.9488C68.5964 39.2751 70.0766 34.919 71.8725 31.1268C70.8692 31.0106 69.8761 30.8712 68.8993 30.707C67.3154 30.4409 65.772 30.1116 64.2864 29.7211C59.6922 32.9757 56.0372 36.7813 53.3156 40.9094C53.0835 41.2615 52.8591 41.6156 52.6405 41.9722ZM91.5217 44.0278C96.7661 43.6449 101.816 42.9994 106.487 42.1071C106.244 41.7061 105.991 41.3082 105.731 40.9129C102.99 36.7574 99.3051 32.9284 94.666 29.6592C92.276 30.2974 89.7402 30.7746 87.1344 31.0903C88.9466 34.9123 90.438 39.3094 91.5217 44.0278ZM66.0558 28.5253C67.069 28.76 68.1058 28.9666 69.1611 29.1442C70.2953 29.335 71.4508 29.4922 72.6198 29.6166C73.8724 27.1933 75.2609 25.0363 76.7584 23.2175C72.7867 24.6956 69.2195 26.4858 66.0558 28.5253ZM86.3916 29.5896C88.6309 29.3404 90.8194 28.9685 92.9065 28.4758C89.7584 26.4556 86.2122 24.681 82.2671 23.2147C83.7588 25.0274 85.1425 27.1758 86.3916 29.5896ZM80.4871 21.3193H77.8303C73.7575 21.4191 67.301 25.5989 63.9694 27.8826C63.5627 27.7686 63.1602 27.6505 62.7637 27.5266C60.7657 26.9024 58.9057 26.1537 57.2397 25.2824L57.2391 25.2821C56.6891 25.4917 56.1371 25.7123 55.5846 25.9419L55.3669 26.0327C55.825 26.2988 56.3807 26.6227 56.4979 26.684C58.2539 27.6026 60.2036 28.3881 62.29 29.04L62.3338 29.0533C58.0429 32.2591 54.5867 35.9475 51.9631 39.927C51.6149 40.4554 51.2822 40.9882 50.9633 41.5264C50.2815 41.3848 49.6038 41.2397 48.9331 41.0873C45.1045 40.2172 41.4616 39.1681 38.09 37.9348C37.7089 38.354 37.3377 38.7785 36.9786 39.2081L37.2591 39.3161L37.3096 39.3348C40.8248 40.6338 44.6119 41.7306 48.5775 42.6317C49.0969 42.7498 49.6201 42.8638 50.1455 42.9752C47.3865 48.1198 45.9255 53.6476 45.7528 59.1862L29.0547 59.2021V59.9822V60.7897L45.7381 60.7738C45.8144 66.5277 47.2809 72.2517 50.1273 77.53C49.6079 77.6405 49.0908 77.7545 48.5775 77.8716C44.6199 78.7737 40.8407 79.8708 37.3316 81.1701C37.7003 81.5991 38.0798 82.022 38.4699 82.439C41.7355 81.2612 45.2485 80.256 48.9331 79.4161C49.5993 79.2643 50.2722 79.1176 50.9493 78.9766C51.3841 79.7053 51.8453 80.4248 52.3347 81.1333C54.9477 84.9166 58.3346 88.3951 62.4882 91.3944C60.8172 91.9082 59.2313 92.508 57.761 93.1917C57.1104 93.4939 56.4858 93.8114 55.891 94.1423L55.8927 94.1455C56.5368 94.4087 57.1887 94.6621 57.8488 94.9041C58.0425 94.8088 58.2373 94.7161 58.4345 94.6243C60.173 93.8159 62.0898 93.1288 64.13 92.5651C64.1695 92.5543 70.2237 96.6136 76.7009 98.594C77.309 98.6194 77.92 98.6369 78.5342 98.6458H81.0834C85.3452 98.5457 91.2306 94.9126 94.7381 92.6137C96.9931 93.2443 99.1021 94.0261 100.998 94.9596C101.644 94.7227 102.293 94.4722 102.944 94.2081L102.952 94.194C101.002 93.1129 98.796 92.2022 96.4169 91.4627C100.619 88.4456 104.04 84.9398 106.675 81.1244C107.193 80.3744 107.68 79.6123 108.138 78.8395C112.729 79.7974 116.916 81.0018 120.514 82.4386C120.922 82.0014 121.318 81.5584 121.703 81.1097C118.089 79.725 113.226 78.3076 108.95 77.395C111.751 72.1543 113.194 66.4788 113.271 60.7738H129.927V59.9822V59.1862H113.257C113.087 53.6946 111.649 48.2138 108.935 43.107C113.687 42.097 118.007 40.8249 121.691 39.3069L121.994 39.1973C121.634 38.7677 121.264 38.3438 120.883 37.926C117.2 39.4247 112.879 40.6754 108.127 41.6626C107.784 41.0793 107.424 40.502 107.047 39.9305C104.403 35.9208 100.915 32.207 96.5781 28.9841C98.8962 28.2532 101.046 27.3587 102.952 26.2988L103.527 25.9994C102.89 25.7327 102.245 25.4767 101.593 25.231C99.6052 26.2718 97.3627 27.1367 94.9498 27.8252C91.2351 25.2916 86.9525 23.1019 82.1011 21.3625C81.5651 21.3416 81.0276 21.3273 80.4871 21.3193Z" fill="#4782A5"/>
<path fill-rule="evenodd" clip-rule="evenodd" d="M106.023 66.4995C106.001 66.6303 105.977 66.7602 105.953 66.8907L105.952 66.8904C105.822 67.5991 105.674 68.2526 105.511 68.8486H105.505C104.601 72.1473 102.992 75.1613 100.681 77.8854L100.683 77.8866L100.68 77.8901L100.661 77.9088C100.046 78.6322 99.398 79.3123 98.7183 79.9464C98.0499 80.57 97.3346 81.1597 96.5739 81.7122C92.7404 84.4956 88.116 85.9813 82.6599 85.9813H82.6532V85.9749C80.178 85.9743 77.8507 85.6165 75.6902 84.9649C75.2915 84.8446 74.9439 84.7316 74.6493 84.6274C72.8773 83.9996 71.2295 83.1737 69.7174 82.1885L69.705 82.1821L69.7021 82.1802L69.7027 82.1792C69.4764 82.0316 69.2009 81.8404 68.8814 81.6122C68.5599 81.3823 68.2915 81.1829 68.076 81.014C67.7935 80.7926 67.5174 80.5656 67.2458 80.3313V84.3365V85.9241H65.6497H62.4632L60.8672 85.9245V84.3365V70.5337V68.9461H62.4632H65.6494H65.6497H67.2458V70.1622C69.1368 73.7813 71.9794 76.3733 75.2187 77.9044C78.219 79.3228 81.5583 79.8391 84.7974 79.4266C88.0294 79.0151 91.167 77.6777 93.7712 75.389C96.3079 73.1593 98.3496 70.0136 99.4975 65.9223C96.7468 66.0639 93.9148 66.53 91.0294 67.0054C84.4817 68.0846 77.6649 69.2083 70.1943 66.9399L69.0563 66.5945L69.0659 65.4142L69.0854 63.0274L69.0876 62.7413L69.0981 61.4432L69.1221 58.5179L69.14 56.3406L71.2107 57.0233C77.6055 59.1313 84.0179 58.0867 90.4296 57.0423C93.0363 56.6178 95.644 56.1939 98.2922 55.9656C96.2984 51.7136 93.4255 48.8768 90.1979 47.261C88.0949 46.2087 85.8355 45.666 83.5681 45.5819C81.287 45.4974 78.9893 45.8759 76.827 46.6637C72.8364 48.1173 69.3289 50.9636 67.2458 54.86V56.0691H65.6497H65.6494H62.4632H60.8672V54.4815V40.6786V39.0913L62.4632 39.091H65.6497L67.2458 39.0913V40.6786V44.4194C67.9662 43.8028 68.7534 43.2214 69.6207 42.6717L69.6271 42.6654L69.6332 42.6616L69.6344 42.6635C70.1653 42.3279 70.7086 42.0145 71.2627 41.7262C71.861 41.415 72.4298 41.1467 72.968 40.9222H72.9744C75.9504 39.681 79.2373 39.0596 82.8333 39.0596H82.8377V39.0659C86.5512 39.0665 89.8799 39.8855 92.8336 41.3422C93.2994 41.5718 93.7715 41.8274 94.2468 42.1059C96.609 43.4897 98.7027 45.2891 100.537 47.399C101.895 48.9616 103.02 50.5327 103.908 52.1766C104.632 53.5175 105.2 54.9057 105.606 56.3733C105.752 56.3955 105.883 56.4162 105.997 56.4365C107.276 56.6604 108.668 57.014 109.991 57.4208L111.119 57.7682L111.119 58.9342V61.3648V61.8341V62.9861V63.6373V65.8632V68.0875L109.006 67.3578L108.951 67.3391C108.675 67.2438 108.405 67.1546 108.145 67.072C107.869 66.9847 107.619 66.9088 107.398 66.8453C106.899 66.7021 106.44 66.5881 106.023 66.4995Z" fill="#1A2128"/>
<path fill-rule="evenodd" clip-rule="evenodd" d="M39.8986 61.8193C41.4501 62.2079 42.3464 61.3306 42.4642 60.1726C42.4999 60.032 42.5191 59.8907 42.5197 59.7535C42.5204 59.6099 42.5028 59.4442 42.4696 59.2616C42.2861 58.0754 41.3603 57.3555 39.8986 57.6156V61.8193ZM40.6348 66.1713L40.6344 67.3566H41.677L41.6776 68.9443L41.6786 70.7535L41.6796 72.3411H40.0889H38.7054H37.3561H37.1094H35.76H32.574H30.9852L30.9843 70.7535L30.9833 68.9443L30.9827 67.3566H32.0846L32.0619 57.6041H30.9297L30.9536 55.9978L30.9843 53.9497L31.0079 52.3809H32.574H35.76H37.1094H37.3561H37.9674H38.7054V52.3888C40.5039 52.4266 42.303 52.6269 43.7962 53.3525C45.739 54.2962 47.0564 55.9778 47.0826 58.9692C47.1056 61.6183 46.358 63.4609 44.8889 64.6688C43.802 65.5623 42.3806 66.0354 40.6348 66.1713Z" fill="#F7E123"/>
<path fill-rule="evenodd" clip-rule="evenodd" d="M58.6002 59.6804H56.4186H54.843L54.829 58.1052L54.8258 57.7381L54.5593 57.7416V67.2646H55.7151V68.8522V70.7535V72.3412H54.119H52.6306H51.2812H51.0344H49.6852H49.4323H47.8363V72.3348H46.6156H45.0195V70.7535V68.8522V67.2646H46.1671V57.6962H45.0195V56.1086V53.9685V52.3872H46.6156H47.8363V52.3809H49.4323H51.0344H52.6306V52.3872H58.6002H60.1962V53.9685V58.0928V59.6804H58.6002Z" fill="#F7E123"/>
<path fill-rule="evenodd" clip-rule="evenodd" d="M103.081 63.4468C103.059 63.5776 103.035 63.7075 103.012 63.838L103.011 63.8376C102.88 64.5464 102.733 65.1999 102.57 65.7958H102.564C101.66 69.0946 100.051 72.1085 97.7398 74.8326L97.7413 74.8339L97.7385 74.8373L97.72 74.8561C97.1045 75.5794 96.4565 76.2595 95.7769 76.8936C95.1084 77.5173 94.3931 78.1069 93.6324 78.6594C89.799 81.4429 85.1745 82.9286 79.7185 82.9286H79.7118V82.9222C77.2366 82.9216 74.9092 82.5637 72.7488 81.9122C72.3501 81.7918 72.0025 81.6788 71.7079 81.5746C69.9359 80.9468 68.2881 80.121 66.776 79.1357L66.7635 79.1293L66.7607 79.1274L66.7613 79.1265C66.535 78.9788 66.2595 78.7877 65.9399 78.5594C65.6185 78.3295 65.35 78.1301 65.1346 77.9612C64.8521 77.7399 64.576 77.5128 64.3043 77.2785V81.2838V82.8714H62.7082H59.5218L57.9258 82.8717V81.2838V67.4809V65.8933H59.5218H62.7079H62.7082H64.3043V67.1094C66.1953 70.7286 69.0379 73.3205 72.2773 74.8516C75.2776 76.27 78.6169 76.7864 81.856 76.3739C85.088 75.9624 88.2256 74.625 90.8297 72.3362C93.3665 70.1066 95.4082 66.9609 96.5561 62.8695C93.8054 63.0111 90.9734 63.4772 88.088 63.9526C81.5403 65.0319 74.7235 66.1556 67.2529 63.8872L66.1149 63.5417L66.1245 62.3615L66.1439 59.9746L66.1462 59.6886L66.1567 58.3905L66.1807 55.4651L66.1985 53.2878L68.2692 53.9705C74.6641 56.0786 81.0765 55.0339 87.4882 53.9896C90.0949 53.565 92.7025 53.1412 95.3507 52.9128C93.3569 48.6609 90.484 45.8241 87.2564 44.2082C85.1535 43.1559 82.894 42.6132 80.6267 42.5291C78.3456 42.4447 76.0478 42.8232 73.8855 43.611C69.895 45.0646 66.3875 47.9109 64.3043 51.8072V53.0164H62.7082H62.7079H59.5218H57.9258V51.4288V37.6259V36.0386L59.5218 36.0382H62.7082L64.3043 36.0386V37.6259V41.3667C65.0247 40.75 65.812 40.1686 66.6792 39.619L66.6856 39.6126L66.6917 39.6088L66.693 39.6107C67.2238 39.2751 67.7671 38.9617 68.3213 38.6734C68.9195 38.3623 69.4884 38.0939 70.0265 37.8694H70.0329C73.009 36.6283 76.2959 36.0068 79.8918 36.0068H79.8963V36.0132C83.6097 36.0138 86.9385 36.8327 89.8922 38.2895C90.3579 38.5191 90.83 38.7747 91.3053 39.0532C93.6675 40.437 95.7613 42.2363 97.5951 44.3463C98.9534 45.9089 100.079 47.48 100.967 49.1238C101.691 50.4647 102.259 51.853 102.665 53.3205C102.81 53.3428 102.941 53.3634 103.056 53.3837C104.335 53.6076 105.727 53.9613 107.049 54.3681L108.178 54.7155L108.178 55.8814V58.312V58.7813V59.9334V60.5846V62.8105V65.0347L106.064 64.3051L106.01 64.2863C105.733 64.191 105.464 64.1018 105.203 64.0193C104.928 63.932 104.678 63.8561 104.456 63.7925C103.957 63.6493 103.499 63.5354 103.081 63.4468Z" fill="#F6E125"/>
<path fill-rule="evenodd" clip-rule="evenodd" d="M126.464 52.3043L128.053 52.3131V53.8855V56.0949V57.6825H126.916L127.03 65.1523V65.1587L127.03 65.2282V65.253C127.028 65.4841 127.008 65.7096 126.971 65.9223C126.939 66.109 126.887 66.3252 126.817 66.5656C125.918 69.6573 123.724 71.8823 120.444 72.5053L113.974 72.523L112.387 72.5275L112.384 70.9418L112.379 67.6588L112.376 66.03L114.012 66.0776L115.987 66.1354L117.463 66.1789L117.516 67.2816L118.587 67.2905L118.579 66.2871L118.157 66.2535L118.032 66.2351C116.007 65.9153 114.653 65.119 113.729 64.0184C112.826 62.9423 112.399 61.6414 112.181 60.2433L112.162 60.1233V60.0014L112.168 57.6825H111.141V56.0949V53.8855V52.2881L112.749 52.3043L116.761 52.3452C117.117 52.3491 117.474 52.35 117.83 52.351L117.757 57.5409L117.025 57.5272L117.013 60.2173C117.008 61.3791 118.388 62.3304 119.218 62.3394L119.19 57.5679L117.954 57.5447L118.027 52.3519C120.837 52.356 123.654 52.289 126.464 52.3043Z" fill="#F7E123"/>
<path fill-rule="evenodd" clip-rule="evenodd" d="M49.1832 70.7538H46.6133V68.8524H47.7608V56.1088H46.6133V53.9688H49.1832V70.7538ZM49.43 70.7538H51.0321V53.9688H49.43V70.7538ZM58.5978 58.0931H56.4163L56.3991 56.1375L52.9608 56.18V68.8524H54.1167V70.7538H51.2789V53.9688H58.5978V58.0931Z" fill="#1A2128"/>
<path fill-rule="evenodd" clip-rule="evenodd" d="M101.716 61.6474C101.267 66.2127 99.5303 70.2755 96.5086 73.8295C92.3808 78.6826 86.8207 81.3413 79.7201 81.3413C75.0896 81.3413 71.026 80.0086 67.6503 77.8088C65.7666 76.5809 64.1198 75.0961 62.7098 73.3577V81.2841H59.5234V67.4813H62.7095H62.7098V67.4819C70.5121 83.1435 94.5055 81.7997 98.5812 61.2472C88.9144 61.1155 78.9087 65.773 67.7158 62.3742L67.7352 59.9873C81.6469 62.7708 89.8047 59.0757 98.226 58.8109V57.0457C90.1466 57.2772 81.599 60.7306 67.748 58.4032L67.7719 55.4778C77.9092 58.8197 87.7078 54.7265 97.6753 54.3509C90.8016 35.6826 69.3926 38.2199 62.7098 51.4284V51.429H62.7095H59.5234V37.6262H62.7098V45.397C63.9998 43.6611 65.5477 42.2122 67.5351 40.9526C71.0656 38.7143 75.1854 37.5947 79.8934 37.5947C86.8019 37.5947 92.2694 40.6376 96.3933 45.3824C98.9547 48.329 100.629 51.2912 101.379 54.7526C102.951 54.9034 104.837 55.3451 106.583 55.8817V58.3123C104.95 57.7157 103.362 57.3626 101.784 57.1832V58.9284C103.337 59.0881 104.924 59.4034 106.583 59.9337V62.8108C104.499 62.0887 102.859 61.7204 101.716 61.6474Z" fill="#1A2128"/>
<path fill-rule="evenodd" clip-rule="evenodd" d="M123.903 53.8708L126.459 53.8847V56.0941H125.304L125.441 65.1702C125.466 66.0586 124.828 67.5583 123.903 68.804V53.8708ZM122.041 53.8606L123.656 53.8695V69.1212C123.167 69.7235 122.612 70.2417 122.041 70.5657V53.8606ZM120.283 62.5561L120.238 56.0658L118.966 56.0531V53.8438L121.795 53.8593V70.6933C121.46 70.8486 121.124 70.9323 120.792 70.9222L113.975 70.9409L113.97 67.658L115.945 67.7158L115.999 68.8497L120.19 68.8843L120.159 64.8209L118.283 64.6714C115.086 64.1665 114.109 62.2776 113.754 60.0006L113.763 56.0941H112.738V53.8847L116.75 53.9257V56.135H116.026L116.008 60.2248C116.177 61.3196 116.914 62.0956 118.219 62.5532L120.283 62.5561Z" fill="#1A2128"/>
<path fill-rule="evenodd" clip-rule="evenodd" d="M37.109 70.7538H32.5736L32.5727 68.9445H33.6774L33.6478 56.0168H32.543L32.5736 53.9688H37.109V70.7538ZM39.0773 62.6023C41.7373 62.9477 43.4879 61.5611 43.4949 59.4308C43.5032 56.9399 41.6983 55.9768 39.0773 56.1959V62.6023ZM39.045 64.6243L39.0441 68.9445H40.0876L40.0885 70.7538H37.3558V53.9688H37.9671C41.6534 53.9688 45.4533 54.4583 45.4925 58.9818C45.5296 63.2433 43.2843 64.7468 39.045 64.6243Z" fill="#1A2128"/>
<path fill-rule="evenodd" clip-rule="evenodd" d="M99.4954 103.396L100.818 109.586L102.642 109.2L102.912 110.462L98.032 111.493L97.7626 110.232L99.5818 109.848L98.259 103.658L99.4954 103.396ZM106.48 101.541L108.462 108.899L103.96 110.099L103.624 108.853L106.905 107.979L106.466 106.348L103.417 107.16L103.084 105.922L106.132 105.109L105.593 103.107L102.202 104.011L101.867 102.77L106.48 101.541ZM110.094 100.086L112.374 105.993L114.115 105.329L114.579 106.532L109.922 108.311L109.457 107.107L111.194 106.444L108.914 100.536L110.094 100.086ZM117.207 96.857L120.443 103.761L119.349 104.268L117.193 99.6677L117.048 105.336L115.898 105.869L112.661 98.9653L113.755 98.4579L115.866 102.96L116.051 97.3929L117.207 96.857ZM120.744 98.0544L119.455 98.3243C119.149 97.5044 119.075 96.8103 119.233 96.2387C119.392 95.6685 119.745 95.2058 120.291 94.8531C120.977 94.4098 121.705 94.3139 122.475 94.5638C123.363 94.8528 124.143 95.5138 124.816 96.5445C125.527 97.6349 125.838 98.6468 125.744 99.5826C125.664 100.394 125.263 101.033 124.538 101.501C123.949 101.882 123.324 102 122.665 101.857C122.196 101.754 121.713 101.466 121.214 100.99L122.067 100.006C122.36 100.309 122.667 100.488 122.987 100.543C123.308 100.598 123.604 100.537 123.875 100.363C124.264 100.112 124.471 99.7385 124.496 99.2425C124.522 98.7481 124.281 98.1124 123.774 97.3361C123.249 96.5312 122.756 96.0358 122.295 95.8514C121.833 95.6653 121.411 95.6964 121.029 95.9437C120.747 96.1254 120.576 96.3905 120.513 96.7376C120.45 97.0868 120.527 97.5263 120.744 98.0544ZM130.061 96.1137L128.784 94.366L128.217 94.7756C127.836 95.0509 127.597 95.2633 127.499 95.4157C127.402 95.5666 127.36 95.744 127.375 95.9457C127.388 96.1486 127.468 96.3493 127.617 96.5515C127.765 96.7553 127.937 96.8967 128.128 96.9713C128.322 97.0459 128.501 97.0589 128.669 97.0119C128.836 96.9633 129.133 96.7842 129.562 96.4747L130.061 96.1137ZM127.344 90.255L131.845 96.4175L130.196 97.6092C129.582 98.0534 129.159 98.3132 128.927 98.3909C128.557 98.5138 128.159 98.4897 127.737 98.3214C127.313 98.1518 126.923 97.8222 126.564 97.3317C126.238 96.8856 126.051 96.4509 126 96.0276C125.948 95.6043 126.006 95.2401 126.171 94.9346C126.334 94.6305 126.726 94.2526 127.347 93.8043L128.019 93.3185L126.321 90.9942L127.344 90.255ZM131.695 86.2665L136.819 91.9274L133.355 95.0296L132.489 94.0713L135.012 91.8105L133.877 90.5557L131.531 92.6564L130.669 91.7035L133.014 89.6028L131.619 88.0621L129.01 90.3988L128.147 89.4443L131.695 86.2665ZM137.57 84.584L135.957 83.3307L135.233 84.2531C134.915 84.657 134.734 84.932 134.686 85.079C134.638 85.2266 134.647 85.3886 134.71 85.5642C134.775 85.7382 134.901 85.8995 135.094 86.049C135.292 86.203 135.486 86.2868 135.679 86.3033C135.873 86.3192 136.048 86.2776 136.203 86.1773C136.36 86.0763 136.606 85.8125 136.939 85.3876L137.57 84.584ZM139.97 86.4491L138.575 85.3648L138.06 86.0204C137.752 86.4133 137.568 86.6616 137.508 86.7663C137.402 86.9562 137.371 87.1432 137.412 87.3302C137.453 87.516 137.575 87.6868 137.776 87.843C137.954 87.9818 138.129 88.0564 138.301 88.0644C138.473 88.0723 138.616 88.0323 138.731 87.9437C138.844 87.8541 139.108 87.5478 139.519 87.0235L139.97 86.4491ZM141.753 86.2389L140.205 88.2095C139.784 88.7464 139.438 89.0868 139.166 89.2275C138.897 89.3688 138.577 89.4183 138.209 89.3745C137.843 89.331 137.5 89.1859 137.185 88.9411C136.894 88.7153 136.682 88.4467 136.548 88.1358C136.415 87.8246 136.371 87.523 136.418 87.2315C136.085 87.443 135.728 87.5322 135.346 87.5004C134.964 87.4715 134.591 87.3147 134.228 87.0327C133.79 86.692 133.502 86.2967 133.364 85.8522C133.225 85.4067 133.233 85.0129 133.387 84.6707C133.495 84.4325 133.832 83.9502 134.402 83.225L135.719 81.549L141.753 86.2389ZM139.381 76.3591L145.654 80.7282L144.962 81.7119L140.782 78.8003L143.506 83.7806L142.777 84.8151L136.505 80.446L137.197 79.4626L141.288 82.3118L138.65 77.398L139.381 76.3591ZM141.736 70.469L148.836 73.3223L148.363 74.4882L145.569 73.3654L144.637 75.6596L147.431 76.7823L146.956 77.9531L139.855 75.0995L140.33 73.9287L143.435 75.1763L144.367 72.8825L141.263 71.6346L141.736 70.469ZM144.302 67.1147L150.137 65.9033L149.866 67.2909L145.685 67.9583L149.347 69.9476L149.096 71.2291L143.787 68.0577C143.141 67.669 142.699 67.3271 142.46 67.0331C142.223 66.7416 142.137 66.4269 142.202 66.0944C142.265 65.7741 142.352 65.4946 142.463 65.2555L143.586 65.4731C143.532 65.6741 143.495 65.8277 143.474 65.9341C143.416 66.2316 143.437 66.4545 143.54 66.599C143.644 66.7454 143.898 66.9175 144.302 67.1147ZM152.583 57.9325L152.695 58.5056C152.211 58.5662 151.814 58.5021 151.511 58.3132C151.205 58.1233 151.019 57.8499 150.949 57.493C150.879 57.1345 150.948 56.8122 151.161 56.522C151.371 56.2337 151.714 56.0244 152.185 55.899L152.297 56.4703C151.814 56.609 151.615 56.9018 151.702 57.3476C151.788 57.7918 152.083 57.9877 152.583 57.9325ZM142.445 56.563L149.962 55.1097L150.192 56.288L145.183 57.2564L150.676 58.7672L150.919 60.0068L143.402 61.4602L143.171 60.2818L148.073 59.334L142.688 57.808L142.445 56.563ZM141.163 50.3909L148.68 48.9376L148.91 50.1159L143.901 51.0844L149.395 52.5952L149.637 53.8348L142.119 55.2881L141.889 54.1098L146.792 53.1619L141.406 51.6359L141.163 50.3909ZM139.384 45.3606L146.324 42.1416L146.859 43.2812L143.905 44.6513C144.054 44.891 144.224 45.0273 144.409 45.0593C144.595 45.092 144.995 45.0635 145.606 44.9736C146.218 44.8853 146.688 44.871 147.012 44.9301C147.336 44.9892 147.574 45.1041 147.718 45.2739C147.863 45.4435 148.057 45.7604 148.301 46.2243L147.261 46.707L147.185 46.5463C147.034 46.2234 146.855 46.0399 146.651 45.9938C146.449 45.9487 146.103 45.9662 145.618 46.0443C145.132 46.123 144.796 46.1513 144.615 46.1297C144.434 46.1103 144.227 46.0357 143.998 45.9093C144.011 46.2085 143.939 46.4923 143.778 46.7584C143.621 47.0255 143.319 47.3982 142.874 47.8748L141.338 49.5288L140.708 48.1863L142.182 46.6714C142.56 46.2866 142.809 45.9894 142.933 45.7807C143.056 45.5731 143.062 45.3432 142.953 45.0926L139.918 46.5003L139.384 45.3606ZM140.6 41.8244L140.893 43.1015C140.075 43.4196 139.379 43.5057 138.801 43.3584C138.226 43.2104 137.754 42.8674 137.39 42.3305C136.932 41.6558 136.823 40.9334 137.061 40.1641C137.336 39.2756 137.987 38.4881 139.011 37.8007C140.095 37.0739 141.106 36.7481 142.048 36.8243C142.865 36.8904 143.515 37.2777 143.998 37.9909C144.391 38.5704 144.521 39.1892 144.389 39.8471C144.293 40.3155 144.012 40.8017 143.542 41.3049L142.538 40.4746C142.838 40.1774 143.012 39.8697 143.062 39.5499C143.112 39.2295 143.046 38.9362 142.865 38.67C142.606 38.2878 142.228 38.0877 141.729 38.0718C141.231 38.0547 140.596 38.3052 139.825 38.8228C139.025 39.3594 138.536 39.8589 138.358 40.3206C138.18 40.7829 138.218 41.2017 138.473 41.578C138.661 41.8545 138.93 42.0203 139.28 42.0765C139.632 42.133 140.073 42.0495 140.6 41.8244ZM132.264 35.5609L138.044 30.5633L141.102 34.0621L140.123 34.908L137.895 32.358L136.614 33.4658L138.684 35.8352L137.711 36.6763L135.641 34.307L134.067 35.6673L136.371 38.303L135.397 39.1454L132.264 35.5609ZM130.807 27.6887L132.603 25.6341L133.557 26.459L132.224 27.9847C131.945 28.3035 131.752 28.5521 131.645 28.7319C131.534 28.9116 131.498 29.1103 131.531 29.3269C131.565 29.5444 131.717 29.7701 131.988 30.0038C132.393 30.3544 132.807 30.5294 133.232 30.5297L135.398 28.0511L136.352 28.876L131.328 34.6248L130.374 33.7999L132.397 31.4854C131.842 31.3657 131.375 31.1403 130.997 30.8132C130.472 30.3595 130.192 29.8587 130.157 29.3117C130.121 28.7661 130.338 28.2254 130.807 27.6887ZM122.663 27.6948L127.272 21.6113L128.235 22.3337L125.165 26.3875L130.263 23.8537L131.277 24.6139L126.668 30.6973L125.705 29.9749L128.71 26.0075L123.681 28.4581L122.663 27.6948ZM116.338 23.9048L120.282 17.3752L121.907 18.3465L120.192 23.3844L123.85 19.5084L125.48 20.4822L121.535 27.0115L120.528 26.4095L123.633 21.2697L119.458 25.77L118.41 25.1435L120.454 19.3696L117.349 24.5094L116.338 23.9048ZM112.665 18.1808C112.293 18.9749 112.166 19.6401 112.282 20.1771C112.4 20.7153 112.681 21.0883 113.131 21.297C113.582 21.5062 114.047 21.4814 114.529 21.2255C115.011 20.9696 115.442 20.4336 115.825 19.6169C116.2 18.8162 116.333 18.1582 116.224 17.6397C116.116 17.1237 115.827 16.757 115.36 16.5405C114.893 16.3239 114.422 16.3398 113.948 16.59C113.472 16.8412 113.045 17.3707 112.665 18.1808ZM111.46 17.6788C111.846 16.8558 112.285 16.2353 112.78 15.8174C113.273 15.3983 113.779 15.1497 114.296 15.0722C114.812 14.9944 115.352 15.0865 115.914 15.3472C116.728 15.7251 117.246 16.3407 117.47 17.198C117.692 18.0544 117.536 19.0546 117 20.1977C116.459 21.3516 115.764 22.1289 114.917 22.5267C114.171 22.8811 113.39 22.8675 112.572 22.488C111.748 22.1057 111.232 21.5199 111.021 20.7311C110.782 19.83 110.929 18.812 111.46 17.6788ZM104.108 19.1118L106.601 11.9093L107.797 12.3186L106.816 15.1526L109.168 15.9581L110.148 13.1242L111.349 13.5354L108.855 20.7378L107.655 20.3266L108.745 17.177L106.394 16.3715L105.303 19.521L104.108 19.1118ZM99.5145 13.9532C99.2863 14.7994 99.2776 15.4767 99.4854 15.9854C99.6952 16.495 100.038 16.8138 100.516 16.9415C100.997 17.0698 101.451 16.965 101.882 16.6297C102.311 16.2944 102.642 15.6923 102.876 14.8217C103.106 13.9685 103.123 13.2972 102.925 12.8057C102.728 12.3161 102.379 12.0049 101.882 11.8725C101.384 11.7398 100.923 11.8369 100.5 12.1649C100.075 12.4942 99.7469 13.0899 99.5145 13.9532ZM98.2402 13.6668C98.4764 12.7898 98.8001 12.1027 99.2144 11.6058C99.6272 11.1079 100.082 10.7758 100.577 10.61C101.072 10.4446 101.62 10.4417 102.219 10.6014C103.087 10.8329 103.705 11.3498 104.074 12.1557C104.443 12.9606 104.464 13.9723 104.135 15.1907C103.804 16.4204 103.255 17.306 102.49 17.8442C101.817 18.3221 101.046 18.4434 100.174 18.211C99.2961 17.9769 98.6855 17.4892 98.3404 16.7487C97.9478 15.9025 97.9149 14.8747 98.2402 13.6668ZM92.2859 16.3693L93.747 8.89158L94.9881 9.13164L94.3659 12.3138C94.649 12.3345 94.86 12.2774 94.9941 12.1481C95.1307 12.0173 95.3421 11.6788 95.6284 11.1345C95.9163 10.59 96.1806 10.2039 96.4194 9.97716C96.6581 9.75077 96.8909 9.62759 97.114 9.61108C97.3372 9.59457 97.7087 9.62503 98.2296 9.70062L98.0107 10.8218L97.8357 10.7878C97.484 10.7199 97.2299 10.7557 97.0722 10.8933C96.9167 11.0295 96.7277 11.3178 96.5062 11.7537C96.2843 12.1916 96.1104 12.478 95.9862 12.6111C95.8636 12.746 95.6817 12.8683 95.4442 12.9778C95.6951 13.1439 95.8837 13.3683 96.006 13.6538C96.1302 13.938 96.2563 14.3997 96.382 15.0382L96.8245 17.2466L95.3625 16.964L94.9966 14.8877C94.906 14.3571 94.8099 13.9825 94.7139 13.7599C94.6171 13.5386 94.4339 13.3985 94.1657 13.3394L93.5266 16.609L92.2859 16.3693ZM88.1677 12.8441L88.2583 11.5575L90.2221 11.6944C90.2043 11.0549 90.0715 10.5532 89.8254 10.1909C89.5792 9.82731 89.2479 9.63172 88.8355 9.60316C88.1613 9.55613 87.6835 9.94609 87.4019 10.7745L86.1809 10.3465C86.3734 9.63619 86.7057 9.1062 87.1794 8.75351C87.6528 8.40093 88.221 8.24807 88.8844 8.29437C89.767 8.35574 90.4463 8.7602 90.9225 9.51167C91.3985 10.2613 91.5938 11.2476 91.5083 12.4666C91.4253 13.6449 91.1013 14.5699 90.5357 15.2399C89.97 15.9117 89.2588 16.2163 88.4001 16.1566C86.9732 16.0572 86.15 15.1821 85.9354 13.5316L87.2359 13.1382C87.2612 13.6646 87.3898 14.0752 87.6228 14.3705C87.8558 14.6658 88.1591 14.8277 88.5345 14.8538C89.3648 14.9116 89.8969 14.287 90.1315 12.9807L88.1677 12.8441ZM77.2777 5.87596L77.8622 5.8252C77.8724 6.31055 77.7668 6.69549 77.5462 6.9761C77.3243 7.25895 77.0316 7.4146 76.6674 7.44584C76.3019 7.47819 75.9868 7.37554 75.7187 7.1351C75.4525 6.89688 75.2791 6.53593 75.2031 6.05672L75.7857 6.00595C75.8738 6.49856 76.1461 6.72617 76.6006 6.68656C77.054 6.64695 77.2806 6.37638 77.2777 5.87596ZM74.8485 15.7622L74.181 8.17387L75.3835 8.06899L75.8282 13.1258L77.913 7.84863L79.1777 7.73872L79.8451 15.3272L78.6427 15.4319L78.2072 10.483L76.1186 15.6517L74.8485 15.7622ZM72.4515 15.8568L71.784 8.26815L73.0434 8.15881L73.7108 15.7473L72.4515 15.8568ZM67.1979 13.0025L67.3738 15.0043L68.7059 14.8883C69.0525 14.8582 69.3009 14.8138 69.4512 14.7541C69.6019 14.6947 69.727 14.5715 69.8292 14.3898C69.9294 14.207 69.9706 14.0037 69.9511 13.7796C69.8917 13.1064 69.4359 12.8079 68.5814 12.8822L67.1979 13.0025ZM66.2275 16.3985L65.56 8.80985L66.8193 8.70051L67.0849 11.7182L68.875 11.5623C69.5413 11.5042 70.0877 11.6721 70.5158 12.064C70.9442 12.4558 71.189 13.0006 71.2503 13.6986C71.3004 14.2673 71.1877 14.7969 70.9122 15.2891C70.6371 15.7816 70.0961 16.0619 69.2878 16.1321L66.2275 16.3985ZM59.8652 17.3984L58.4042 9.92098L59.645 9.68093L60.2199 12.6231L62.6615 12.1509L62.0867 9.20907L63.3329 8.96807L64.7939 16.4455L63.5477 16.6865L62.9089 13.4169L60.4673 13.8888L61.106 17.1586L59.8652 17.3984ZM53.7347 18.9406L51.6241 11.6182L52.839 11.2717L53.6696 14.1527L56.0605 13.4706L55.2299 10.5897L56.4503 10.2417L58.5612 17.5638L57.3409 17.9118L56.4177 14.7102L54.0268 15.3923L54.9499 18.5939L53.7347 18.9406ZM48.2943 20.8029L45.55 13.6916L49.9013 12.03L50.3657 13.2337L47.1947 14.4444L47.8031 16.021L50.7494 14.896L51.2113 16.0928L48.265 17.2181L49.0119 19.1537L52.2896 17.902L52.7521 19.101L48.2943 20.8029ZM42.2369 19.6849L43.0369 21.5589L44.12 21.1014C44.5944 20.9013 44.8874 20.7486 45.0013 20.6429C45.115 20.5368 45.1865 20.3911 45.2165 20.2072C45.2445 20.0237 45.2123 19.8215 45.1169 19.5979C45.0186 19.3674 44.8896 19.2006 44.7293 19.093C44.5672 18.9857 44.3938 18.9378 44.2093 18.9504C44.023 18.9635 43.6798 19.0756 43.1809 19.2864L42.2369 19.6849ZM41.0469 16.896L41.739 18.5174L42.5086 18.1925C42.9701 17.9976 43.2517 17.869 43.3552 17.8061C43.5406 17.6911 43.659 17.5429 43.7146 17.3594C43.7682 17.1768 43.7455 16.9688 43.646 16.7354C43.5575 16.5281 43.4413 16.3785 43.2941 16.2883C43.1473 16.1985 43.0031 16.1648 42.8597 16.1867C42.7167 16.2105 42.3372 16.3515 41.7217 16.6112L41.0469 16.896ZM39.3854 16.2204L41.6997 15.2433C42.3298 14.9769 42.7987 14.8465 43.1046 14.854C43.4091 14.8604 43.7124 14.9712 44.0137 15.1871C44.3125 15.4018 44.5416 15.6943 44.6981 16.06C44.842 16.3979 44.8969 16.7351 44.8622 17.0713C44.8273 17.4079 44.7188 17.6928 44.535 17.9248C44.9295 17.9004 45.2854 17.9947 45.6043 18.2071C45.9245 18.4167 46.1738 18.7336 46.3535 19.1546C46.5709 19.6642 46.6309 20.1494 46.5345 20.6044C46.4388 21.0607 46.2393 21.4014 45.9382 21.6266C45.7279 21.7828 45.1973 22.0416 44.3453 22.4013L42.3774 23.2323L39.3854 16.2204ZM38.9755 25.0438L35.8912 19.509L34.2597 20.4085L33.6315 19.281L37.9949 16.8751L38.6234 18.0027L36.9967 18.8993L40.0809 24.4341L38.9755 25.0438ZM34.0134 24.5932L35.2918 24.2785C35.626 25.0873 35.7246 25.7782 35.5868 26.3552C35.4479 26.9305 35.1114 27.4052 34.578 27.7767C33.908 28.2435 33.1834 28.3648 32.4061 28.1416C31.5081 27.8837 30.7053 27.2502 29.9967 26.2434C29.2472 25.1784 28.9021 24.1779 28.9621 23.2396C29.0141 22.4261 29.3924 21.7733 30.1007 21.2798C30.6763 20.8788 31.2962 20.7394 31.9598 20.8594C32.4323 20.9461 32.9254 21.2173 33.4397 21.6755L32.6225 22.6887C32.3189 22.3959 32.0064 22.2276 31.6841 22.1841C31.3613 22.1403 31.0673 22.2108 30.803 22.395C30.4234 22.6594 30.229 23.0393 30.2217 23.5358C30.2131 24.0312 30.4758 24.6577 31.0099 25.4162C31.563 26.2024 32.0738 26.68 32.5408 26.8486C33.0088 27.0184 33.4288 26.9728 33.8027 26.7124C34.0775 26.5212 34.2393 26.2501 34.2898 25.9011C34.3405 25.5496 34.2489 25.1133 34.0134 24.5932ZM24.8264 27.0124L26.1635 28.715L26.7155 28.2861C27.0867 27.9974 27.3181 27.7767 27.411 27.6211C27.5027 27.4671 27.5387 27.2883 27.5163 27.0874C27.4956 26.8851 27.4085 26.6873 27.2536 26.4901C27.0976 26.2916 26.9213 26.1564 26.7276 26.0885C26.5316 26.0205 26.3519 26.0138 26.1852 26.0669C26.0202 26.1208 25.7297 26.3104 25.3125 26.6346L24.8264 27.0124ZM27.7469 32.7733L23.0324 26.7708L24.6384 25.5226C25.2368 25.0574 25.6506 24.7831 25.8795 24.6973C26.2456 24.5618 26.6433 24.5723 27.0711 24.7256C27.5004 24.8803 27.9026 25.1962 28.2777 25.6741C28.6193 26.1084 28.8217 26.5365 28.8877 26.9575C28.9538 27.3788 28.9088 27.745 28.7546 28.0558C28.6023 28.3657 28.2237 28.7566 27.6195 29.2262L26.9648 29.7352L28.7431 31.9992L27.7469 32.7733ZM23.4352 32.799L20.7678 31.4988L22.2666 34.0456L23.4352 32.799ZM27.2425 33.1562L26.3024 34.159L24.6549 33.3779L22.9456 35.2014L23.8655 36.7582L22.9462 37.7391L19.0128 30.7656L19.9283 29.7889L27.2425 33.1562ZM16.3448 35.8295L15.2987 37.372C17.1716 38.6285 18.4788 39.7109 19.2136 40.6191L20.5486 38.6501L16.3448 35.8295ZM21.2556 37.6076L21.5595 37.1593L24.0165 38.8076L23.4352 39.6649L22.053 38.7374L19.8354 42.0076L21.2176 42.9351L20.6367 43.7921L18.1797 42.1438L18.4717 41.7129C18.1433 41.2465 17.6935 40.7543 17.1282 40.2403C16.5603 39.7268 15.6537 39.0499 14.4062 38.2128L13.5578 37.6435L15.9816 34.0692L21.2556 37.6076ZM15.8213 44.6129L9.87693 44.1776L10.522 42.9179L14.7261 43.4225L11.7574 40.5063L12.3531 39.3432L16.5775 43.8473C17.0915 44.3982 17.4216 44.8482 17.5697 45.1962C17.7171 45.5413 17.712 45.8674 17.5572 46.1694C17.4084 46.4599 17.2469 46.7047 17.0749 46.9041L16.055 46.3872C16.1626 46.2088 16.2407 46.0713 16.2903 45.9748C16.4285 45.7045 16.4693 45.4842 16.4109 45.3175C16.3515 45.1479 16.1556 44.9133 15.8213 44.6129ZM13.2191 48.6512L13.8997 47.5297C14.7111 47.8663 15.2719 48.2854 15.5844 48.7903C15.8954 49.2951 15.9946 49.8673 15.8816 50.5049C15.7396 51.3063 15.3134 51.9017 14.6054 52.2906C13.787 52.7399 12.769 52.8565 11.5521 52.6431C10.2651 52.4173 9.30997 51.9528 8.6853 51.247C8.14386 50.6351 7.947 49.9073 8.09731 49.0602C8.21901 48.3721 8.55855 47.8374 9.11306 47.4554C9.50885 47.1845 10.0506 47.0293 10.7397 46.9914L10.8821 48.2825C10.4591 48.2892 10.1189 48.3902 9.85966 48.5861C9.60049 48.782 9.44278 49.0386 9.38658 49.3548C9.30616 49.8088 9.43897 50.214 9.78658 50.5706C10.1326 50.9266 10.764 51.185 11.6808 51.3457C12.6307 51.5124 13.3315 51.4911 13.7815 51.2819C14.2329 51.0729 14.4975 50.7449 14.5771 50.2976C14.6351 49.9692 14.5569 49.6637 14.3446 49.3815C14.1308 49.0973 13.7554 48.8534 13.2191 48.6512ZM10.5441 58.0858C11.4114 58.2379 12.0903 58.1878 12.5816 57.9375C13.0739 57.6851 13.3634 57.318 13.4496 56.8326C13.5357 56.3448 13.3915 55.9038 13.018 55.5069C12.6448 55.1103 12.0131 54.8353 11.1209 54.6787C10.2463 54.5254 9.57267 54.5673 9.09769 54.8064C8.62434 55.0442 8.34296 55.4164 8.25379 55.9213C8.16405 56.4258 8.30146 56.8748 8.66741 57.265C9.0342 57.6572 9.65921 57.9305 10.5441 58.0858ZM10.3682 59.3734C9.46925 59.2159 8.75294 58.9552 8.21901 58.5878C7.68453 58.222 7.31213 57.8 7.10349 57.324C6.89429 56.8481 6.84382 56.3057 6.9515 55.6983C7.10798 54.8175 7.5718 54.1606 8.34633 53.7239C9.12035 53.2886 10.1317 53.1797 11.3804 53.3988C12.641 53.6198 13.5757 54.0866 14.1812 54.7975C14.7188 55.4234 14.9074 56.1765 14.7507 57.0605C14.5926 57.9515 14.1573 58.5989 13.446 59.0057C12.6327 59.4683 11.6064 59.5905 10.3682 59.3734ZM14.8164 64.8681L7.38672 66.4393L6.46749 62.1384L7.73557 61.8704L8.39176 64.9412L14.5537 63.6384L14.8164 64.8681ZM6.39514 72.209L6.27344 71.6381C6.75577 71.5689 7.15285 71.6261 7.46019 71.8096C7.76922 71.9944 7.9599 72.2643 8.03618 72.6199C8.11245 72.9772 8.04852 73.3007 7.84157 73.5947C7.6363 73.8865 7.29754 74.1015 6.82811 74.2352L6.70641 73.6661C7.18762 73.5191 7.38111 73.2226 7.28633 72.7784C7.1921 72.3357 6.89373 72.1449 6.39514 72.209ZM16.5558 73.4023L9.06516 74.9861L8.81424 73.8116L13.8058 72.7565L8.28632 71.3412L8.02216 70.1061L15.5129 68.5223L15.7639 69.6968L10.8789 70.7293L16.2906 72.1617L16.5558 73.4023ZM19.482 79.0019L12.7843 82.695L12.1992 81.6449L16.6624 79.1841L10.9683 79.4359L10.3529 78.3316L17.0506 74.6384L17.6357 75.6885L13.2676 78.0969L18.8641 77.8928L19.482 79.0019ZM22.6908 83.191L16.6561 87.8805L15.8778 86.8898L18.4462 84.8939C18.2461 84.6935 18.0494 84.5989 17.8627 84.6091C17.6734 84.6185 17.2907 84.736 16.7154 84.9603C16.1392 85.1831 15.685 85.3022 15.3553 85.3175C15.0258 85.3324 14.7689 85.2736 14.5898 85.1403C14.4104 85.0072 14.1499 84.7418 13.8064 84.3449L14.7114 83.6415L14.8209 83.7813C15.0418 84.0623 15.2572 84.201 15.4667 84.2001C15.6738 84.1988 16.0068 84.1042 16.4613 83.9197C16.9175 83.7343 17.2377 83.6317 17.4193 83.6124C17.6009 83.5904 17.8186 83.6168 18.0702 83.6888C17.9904 83.4003 17.9961 83.1078 18.0922 82.8125C18.1858 82.5168 18.3951 82.0863 18.7214 81.5221L19.8441 79.5667L20.7608 80.734L19.6679 82.5397C19.3863 82.9995 19.2117 83.3447 19.1373 83.5758C19.0646 83.8057 19.1102 84.0312 19.2736 84.2506L21.9126 82.2L22.6908 83.191ZM22.204 86.8984L21.6917 85.6915C22.4425 85.2365 23.1131 85.0317 23.7075 85.0767C24.3006 85.1234 24.8245 85.3797 25.2768 85.8455C25.845 86.4307 26.0786 87.1235 25.979 87.9221C25.8631 88.8445 25.3598 89.7326 24.4707 90.5865C23.5307 91.4895 22.5912 91.9849 21.6502 92.0728C20.8342 92.149 20.1269 91.8794 19.5261 91.2606C19.038 90.7579 18.8025 90.1709 18.8178 89.4999C18.8302 89.022 19.0221 88.4949 19.3965 87.9183L20.5304 88.5625C20.2874 88.9068 20.1693 89.2401 20.1764 89.5634C20.1831 89.8876 20.2993 90.1651 20.5233 90.3963C20.8454 90.7278 21.2531 90.8592 21.7475 90.7888C22.2404 90.7199 22.8217 90.3635 23.4911 89.7203C24.185 89.0538 24.5796 88.4775 24.6741 87.9923C24.7695 87.5059 24.6581 87.1003 24.3412 86.7736C24.1081 86.5339 23.8138 86.417 23.4595 86.4221C23.1026 86.4272 22.6835 86.5856 22.204 86.8984ZM28.7655 93.5522L30.0813 91.9925L29.1795 91.2399C28.7849 90.9103 28.5149 90.7201 28.3687 90.6671C28.2222 90.6144 28.059 90.6173 27.8806 90.6745C27.7034 90.7325 27.5371 90.8529 27.3801 91.039C27.2182 91.2307 27.1276 91.421 27.104 91.6117C27.0813 91.8042 27.117 91.9798 27.2121 92.1376C27.3086 92.2967 27.5649 92.55 27.9799 92.8965L28.7655 93.5522ZM26.8077 95.8727L27.946 94.5235L27.3054 93.9888C26.9213 93.6684 26.6781 93.4769 26.575 93.414C26.3879 93.302 26.2012 93.2642 26.0116 93.2984C25.8239 93.3334 25.6477 93.448 25.4839 93.6423C25.3384 93.8148 25.2573 93.9859 25.2432 94.1571C25.2292 94.3282 25.2647 94.4711 25.3492 94.5883C25.4354 94.7041 25.7339 94.9766 26.2462 95.4043L26.8077 95.8727ZM26.9568 97.6524L25.031 96.0447C24.5065 95.6069 24.1764 95.2506 24.0446 94.9763C23.9118 94.7032 23.8735 94.3844 23.93 94.0192C23.9868 93.6569 24.1445 93.321 24.4012 93.0165C24.6386 92.7355 24.9154 92.5339 25.2327 92.4119C25.5497 92.2897 25.8546 92.2567 26.1457 92.3144C25.9449 91.9756 25.8676 91.6175 25.9129 91.2384C25.9554 90.8596 26.1262 90.4947 26.4218 90.1442C26.7793 89.7203 27.1866 89.4469 27.638 89.3259C28.0903 89.2033 28.4858 89.2256 28.8245 89.39C29.0598 89.5056 29.5329 89.8584 30.2415 90.4502L31.8794 91.8169L26.9568 97.6524ZM34.6565 98.2297C35.136 97.4952 35.355 96.8538 35.3151 96.3061C35.2739 95.7571 35.0476 95.3484 34.6316 95.0798C34.2144 94.8102 33.7497 94.7699 33.2364 94.9569C32.7237 95.1436 32.2222 95.6148 31.7287 96.3705C31.2451 97.1113 31.021 97.7445 31.0565 98.2728C31.0916 98.7992 31.3262 99.2019 31.7584 99.481C32.1903 99.7601 32.6595 99.8096 33.1636 99.6274C33.6698 99.4448 34.1669 98.9793 34.6565 98.2297ZM35.7792 98.8939C35.2822 99.6553 34.7609 100.209 34.2125 100.555C33.6654 100.901 33.1291 101.078 32.6069 101.083C32.0847 101.088 31.5634 100.922 31.0433 100.586C30.2894 100.099 29.8626 99.4178 29.7611 98.5379C29.6609 97.659 29.9552 96.6903 30.6459 95.6326C31.3431 94.5648 32.1402 93.8913 33.0346 93.6147C33.8237 93.3671 34.5946 93.4887 35.3515 93.9777C36.1141 94.4702 36.5431 95.1217 36.6414 95.932C36.7519 96.8573 36.4639 97.8451 35.7792 98.8939ZM41.1548 97.4377L38.1679 103.025L39.8148 103.896L39.2063 105.035L34.8011 102.705L35.4096 101.566L37.0516 102.435L40.0385 96.8475L41.1548 97.4377ZM43.4726 101.585L42.4955 100.706C42.9826 99.9783 43.5033 99.5102 44.0613 99.3016C44.6182 99.0943 45.2021 99.1063 45.8099 99.3384C46.5738 99.6303 47.0797 100.16 47.3287 100.925C47.6157 101.81 47.5366 102.826 47.0938 103.974C46.6255 105.188 45.9845 106.032 45.1689 106.507C44.4619 106.919 43.7063 106.972 42.899 106.664C42.243 106.414 41.7798 105.98 41.5088 105.366C41.3169 104.927 41.2672 104.369 41.3614 103.689L42.6627 103.796C42.5887 104.211 42.6232 104.562 42.7672 104.852C42.9111 105.143 43.1342 105.346 43.4356 105.461C43.8681 105.626 44.2936 105.574 44.7115 105.303C45.129 105.033 45.5044 104.466 45.838 103.601C46.1837 102.705 46.2964 102.017 46.1757 101.538C46.0557 101.057 45.7825 100.736 45.3563 100.573C45.0435 100.454 44.7271 100.471 44.4079 100.625C44.0868 100.78 43.7743 101.099 43.4726 101.585ZM52.5306 105.913C52.7879 105.076 52.8205 104.399 52.6306 103.884C52.439 103.367 52.108 103.036 51.6339 102.892C51.158 102.748 50.7 102.836 50.2585 103.157C49.8173 103.477 49.4659 104.067 49.2009 104.929C48.9414 105.774 48.9015 106.444 49.0819 106.942C49.2616 107.438 49.5987 107.761 50.0912 107.911C50.5841 108.061 51.0489 107.98 51.4827 107.666C51.9187 107.352 52.2679 106.768 52.5306 105.913ZM53.7938 106.244C53.5269 107.112 53.1796 107.788 52.7477 108.27C52.3181 108.753 51.8517 109.07 51.3512 109.218C50.8506 109.366 50.3035 109.35 49.7104 109.169C48.8507 108.908 48.2516 108.37 47.9103 107.552C47.5704 106.735 47.5847 105.723 47.9557 104.517C48.3298 103.299 48.9095 102.433 49.6928 101.922C50.3823 101.467 51.157 101.373 52.0202 101.635C52.8897 101.9 53.4829 102.409 53.8021 103.16C54.1644 104.02 54.1615 105.048 53.7938 106.244ZM57.5898 109.932L58.1153 107.836L57.4357 107.667C56.9786 107.554 56.6612 107.508 56.4806 107.531C56.3021 107.554 56.1387 107.636 55.9928 107.777C55.8453 107.918 55.7426 108.108 55.6816 108.351C55.6203 108.595 55.6219 108.817 55.6873 109.011C55.7544 109.206 55.8594 109.351 56.004 109.449C56.1486 109.545 56.4774 109.656 56.9913 109.783L57.5898 109.932ZM60.3555 104.096L58.5031 111.487L56.5253 110.996C55.7885 110.814 55.3164 110.659 55.1073 110.532C54.7744 110.328 54.5382 110.01 54.3961 109.58C54.2544 109.148 54.257 108.639 54.4044 108.05C54.5388 107.515 54.753 107.093 55.0457 106.782C55.3391 106.471 55.6567 106.281 55.9979 106.21C56.3372 106.139 56.8799 106.195 57.624 106.38L58.4303 106.58L59.1291 103.792L60.3555 104.096Z" fill="#FFF100"/>
<path fill-rule="evenodd" clip-rule="evenodd" d="M71.5898 112.668V106.913H73.0403C73.2419 106.906 73.4437 106.923 73.6412 106.964C73.825 107.008 73.9934 107.101 74.1281 107.234C74.2767 107.394 74.3866 107.585 74.4493 107.794C74.5333 108.048 74.5753 108.315 74.5736 108.582C74.5879 109.019 74.4764 109.451 74.2524 109.827C73.9858 110.194 73.5422 110.388 73.0921 110.335H72.0561V112.679L71.5898 112.668ZM72.1182 109.65H73.1542C73.4215 109.677 73.686 109.578 73.8691 109.381C74.0223 109.152 74.0952 108.878 74.0763 108.603C74.083 108.389 74.0404 108.176 73.952 107.981C73.8876 107.83 73.7695 107.708 73.6204 107.639C73.4591 107.614 73.2949 107.614 73.1335 107.639H72.0975L72.1182 109.65Z" fill="#FFE600"/>
<path fill-rule="evenodd" clip-rule="evenodd" d="M75.8346 106.912H76.3111V111.475L78.3832 106.912H78.9012V112.668H78.4246V108.115L76.3526 112.668H75.8242L75.8346 106.912Z" fill="#FFE600"/>
<path fill-rule="evenodd" clip-rule="evenodd" d="M80.375 112.668V106.912H80.9034V109.277H82.9754V106.912H83.5038V112.668H82.9754V109.951H80.9034V112.668H80.375Z" fill="#FFE600"/>
<path fill-rule="evenodd" clip-rule="evenodd" d="M84.4883 112.668L86.0112 109.691L84.6644 106.912H85.2964L86.0216 108.395C86.1666 108.696 86.2702 108.934 86.3324 109.09C86.4256 108.883 86.5292 108.665 86.6535 108.437L87.4409 106.912H88.0107L86.6432 109.65L88.1247 112.668H87.4824L86.4463 110.594L86.2806 110.241L86.1045 110.635L85.0684 112.637L84.4883 112.668Z" fill="#FFE600"/>
<path fill-rule="evenodd" clip-rule="evenodd" d="M70.9679 105.782C69.9266 106.908 69.3653 108.397 69.4035 109.93C69.3793 111.462 69.9386 112.945 70.9679 114.079H70.108C69.0383 112.966 68.4533 111.474 68.4814 109.93C68.4644 108.389 69.0478 106.901 70.108 105.782H70.9679Z" fill="#FFE600"/>
<path fill-rule="evenodd" clip-rule="evenodd" d="M89.6177 105.782C90.6779 106.901 91.2613 108.389 91.2443 109.93C91.2724 111.474 90.6874 112.966 89.6177 114.079H88.7578C89.7871 112.945 90.3464 111.462 90.3222 109.93C90.3604 108.397 89.7991 106.908 88.7578 105.782H89.6177Z" fill="#FFE600"/>
</g>
<defs>
<clipPath id="clip0">
<rect width="159" height="120" fill="white"/>
</clipPath>
</defs>
</svg>
